Groote-Italic-Corsyf-04.ufo
<glyph name="ampersand" format="2">
  <advance width="1156"/>
  <unicode hex="0026"/>
  <outline>
    <contour>
      <point x="492" y="-65" type="curve" smooth="yes"/>
      <point x="701" y="-65"/>
      <point x="883" y="43"/>
      <point x="930" y="195" type="curve" smooth="yes"/>
      <point x="947" y="250"/>
      <point x="945" y="340"/>
      <point x="927" y="411" type="curve" smooth="yes"/>
      <point x="924" y="423"/>
      <point x="913" y="432"/>
      <point x="900" y="433" type="curve" smooth="yes"/>
      <point x="885" y="434" type="line" smooth="yes"/>
      <point x="873" y="435"/>
      <point x="869" y="423"/>
      <point x="874" y="407" type="curve" smooth="yes"/>
      <point x="890" y="359"/>
      <point x="893" y="259"/>
      <point x="867" y="173" type="curve" smooth="yes"/>
      <point x="837" y="75"/>
      <point x="714" y="5"/>
      <point x="570" y="5" type="curve" smooth="yes"/>
      <point x="354" y="5"/>
      <point x="226" y="142"/>
      <point x="274" y="299" type="curve" smooth="yes"/>
      <point x="293" y="361"/>
      <point x="341" y="405"/>
      <point x="391" y="405" type="curve" smooth="yes"/>
      <point x="440" y="405"/>
      <point x="470" y="372"/>
      <point x="464" y="353" type="curve" smooth="yes"/>
      <point x="457" y="331"/>
      <point x="422" y="315"/>
      <point x="380" y="315" type="curve" smooth="yes"/>
      <point x="319" y="315"/>
      <point x="276" y="415"/>
      <point x="319" y="556" type="curve" smooth="yes"/>
      <point x="341" y="627"/>
      <point x="391" y="677"/>
      <point x="439" y="677" type="curve" smooth="yes"/>
      <point x="468" y="677"/>
      <point x="528" y="655"/>
      <point x="541" y="625" type="curve" smooth="yes"/>
      <point x="547" y="611"/>
      <point x="560" y="602"/>
      <point x="572" y="609" type="curve" smooth="yes"/>
      <point x="633" y="644" type="line" smooth="yes"/>
      <point x="645" y="651"/>
      <point x="654" y="661"/>
      <point x="652" y="673" type="curve" smooth="yes"/>
      <point x="644" y="723"/>
      <point x="599" y="759"/>
      <point x="544" y="759" type="curve" smooth="yes"/>
      <point x="393" y="759"/>
      <point x="279" y="668"/>
      <point x="240" y="540" type="curve" smooth="yes"/>
      <point x="192" y="383"/>
      <point x="236" y="272"/>
      <point x="347" y="272" type="curve" smooth="yes"/>
      <point x="428" y="272"/>
      <point x="500" y="320"/>
      <point x="521" y="389" type="curve" smooth="yes"/>
      <point x="532" y="425"/>
      <point x="503" y="450"/>
      <point x="452" y="450" type="curve" smooth="yes"/>
      <point x="330" y="450"/>
      <point x="215" y="353"/>
      <point x="173" y="215" type="curve" smooth="yes"/>
      <point x="123" y="51"/>
      <point x="255" y="-65"/>
    </contour>
    <contour>
      <point x="703" y="245" type="curve"/>
      <point x="727" y="272"/>
      <point x="748" y="276"/>
      <point x="770" y="301" type="curve" smooth="yes"/>
      <point x="783" y="316"/>
      <point x="777" y="328"/>
      <point x="757" y="331" type="curve" smooth="yes"/>
      <point x="704" y="339"/>
      <point x="674" y="370"/>
      <point x="684" y="405" type="curve" smooth="yes"/>
      <point x="692" y="433"/>
      <point x="724" y="453"/>
      <point x="761" y="453" type="curve" smooth="yes"/>
      <point x="794" y="453"/>
      <point x="940" y="386"/>
      <point x="982" y="386" type="curve" smooth="yes"/>
      <point x="1046" y="386"/>
      <point x="1114" y="463"/>
      <point x="1147" y="573" type="curve" smooth="yes"/>
      <point x="1172" y="655"/>
      <point x="1126" y="718"/>
      <point x="1036" y="725" type="curve" smooth="yes"/>
      <point x="1028" y="726"/>
      <point x="1014" y="721"/>
      <point x="1004" y="713" type="curve" smooth="yes"/>
      <point x="939" y="666" type="line" smooth="yes"/>
      <point x="920" y="652"/>
      <point x="947" y="636"/>
      <point x="947" y="636" type="curve"/>
      <point x="1034" y="636"/>
      <point x="1082" y="592"/>
      <point x="1063" y="531" type="curve" smooth="yes"/>
      <point x="1049" y="484"/>
      <point x="1019" y="451"/>
      <point x="991" y="451" type="curve" smooth="yes"/>
      <point x="969" y="451"/>
      <point x="869" y="501"/>
      <point x="835" y="501" type="curve" smooth="yes"/>
      <point x="717" y="501"/>
      <point x="618" y="451"/>
      <point x="597" y="381" type="curve" smooth="yes"/>
      <point x="577" y="317"/>
      <point x="620" y="260"/>
    </contour>
  </outline>
</glyph>
<glyph name="asterisk" format="2">
  <advance width="781"/>
  <unicode hex="002A"/>
  <outline>
    <contour>
      <point x="380" y="330" type="curve"/>
      <point x="399" y="330" type="line"/>
      <point x="399" y="349"/>
      <point x="452" y="462"/>
      <point x="452" y="504" type="curve" smooth="yes"/>
      <point x="452" y="548"/>
      <point x="424" y="579"/>
      <point x="383" y="579" type="curve" smooth="yes"/>
      <point x="343" y="579"/>
      <point x="314" y="549"/>
      <point x="314" y="507" type="curve" smooth="yes"/>
      <point x="314" y="473"/>
      <point x="380" y="351"/>
    </contour>
    <contour>
      <point x="394" y="366" type="curve" smooth="yes"/>
      <point x="394" y="363"/>
      <point x="388" y="366"/>
      <point x="384" y="366" type="curve"/>
      <point x="384" y="390"/>
      <point x="342" y="479"/>
      <point x="342" y="503" type="curve" smooth="yes"/>
      <point x="342" y="541"/>
      <point x="365" y="552"/>
      <point x="381" y="552" type="curve" smooth="yes"/>
      <point x="401" y="552"/>
      <point x="425" y="541"/>
      <point x="425" y="504" type="curve" smooth="yes"/>
      <point x="425" y="468"/>
      <point x="394" y="390"/>
    </contour>
    <contour>
      <point x="443" y="313" type="curve"/>
      <point x="456" y="300" type="line"/>
      <point x="470" y="314"/>
      <point x="587" y="356"/>
      <point x="617" y="386" type="curve" smooth="yes"/>
      <point x="648" y="417"/>
      <point x="650" y="459"/>
      <point x="621" y="488" type="curve" smooth="yes"/>
      <point x="593" y="516"/>
      <point x="551" y="515"/>
      <point x="521" y="485" type="curve" smooth="yes"/>
      <point x="498" y="462"/>
      <point x="458" y="329"/>
    </contour>
    <contour>
      <point x="479" y="329" type="curve" smooth="yes"/>
      <point x="477" y="327"/>
      <point x="474" y="334"/>
      <point x="472" y="336" type="curve"/>
      <point x="488" y="353"/>
      <point x="521" y="446"/>
      <point x="539" y="463" type="curve" smooth="yes"/>
      <point x="565" y="489"/>
      <point x="589" y="481"/>
      <point x="600" y="470" type="curve" smooth="yes"/>
      <point x="615" y="456"/>
      <point x="624" y="431"/>
      <point x="598" y="405" type="curve" smooth="yes"/>
      <point x="572" y="380"/>
      <point x="495" y="346"/>
    </contour>
    <contour>
      <point x="473" y="254" type="curve"/>
      <point x="473" y="235" type="line"/>
      <point x="492" y="235"/>
      <point x="605" y="182"/>
      <point x="647" y="182" type="curve" smooth="yes"/>
      <point x="691" y="182"/>
      <point x="722" y="210"/>
      <point x="722" y="251" type="curve" smooth="yes"/>
      <point x="722" y="291"/>
      <point x="692" y="320"/>
      <point x="650" y="320" type="curve" smooth="yes"/>
      <point x="616" y="320"/>
      <point x="494" y="254"/>
    </contour>
    <contour>
      <point x="509" y="240" type="curve" smooth="yes"/>
      <point x="506" y="240"/>
      <point x="509" y="246"/>
      <point x="509" y="250" type="curve"/>
      <point x="533" y="250"/>
      <point x="622" y="292"/>
      <point x="646" y="292" type="curve" smooth="yes"/>
      <point x="684" y="292"/>
      <point x="695" y="269"/>
      <point x="695" y="253" type="curve" smooth="yes"/>
      <point x="695" y="233"/>
      <point x="684" y="209"/>
      <point x="647" y="209" type="curve" smooth="yes"/>
      <point x="611" y="209"/>
      <point x="533" y="240"/>
    </contour>
    <contour>
      <point x="456" y="194" type="curve"/>
      <point x="443" y="181" type="line"/>
      <point x="457" y="167"/>
      <point x="499" y="49"/>
      <point x="529" y="19" type="curve" smooth="yes"/>
      <point x="560" y="-12"/>
      <point x="602" y="-14"/>
      <point x="631" y="15" type="curve" smooth="yes"/>
      <point x="659" y="44"/>
      <point x="658" y="85"/>
      <point x="628" y="115" type="curve" smooth="yes"/>
      <point x="605" y="139"/>
      <point x="472" y="178"/>
    </contour>
    <contour>
      <point x="472" y="158" type="curve" smooth="yes"/>
      <point x="470" y="160"/>
      <point x="477" y="162"/>
      <point x="479" y="165" type="curve"/>
      <point x="496" y="148"/>
      <point x="589" y="115"/>
      <point x="606" y="98" type="curve" smooth="yes"/>
      <point x="632" y="71"/>
      <point x="624" y="47"/>
      <point x="613" y="36" type="curve" smooth="yes"/>
      <point x="599" y="22"/>
      <point x="574" y="13"/>
      <point x="548" y="39" type="curve" smooth="yes"/>
      <point x="523" y="64"/>
      <point x="489" y="141"/>
    </contour>
    <contour>
      <point x="400" y="163" type="curve"/>
      <point x="382" y="163" type="line"/>
      <point x="382" y="143"/>
      <point x="328" y="31"/>
      <point x="328" y="-12" type="curve" smooth="yes"/>
      <point x="328" y="-56"/>
      <point x="357" y="-87"/>
      <point x="397" y="-87" type="curve" smooth="yes"/>
      <point x="438" y="-87"/>
      <point x="466" y="-57"/>
      <point x="466" y="-14" type="curve" smooth="yes"/>
      <point x="466" y="19"/>
      <point x="400" y="141"/>
    </contour>
    <contour>
      <point x="386" y="126" type="curve" smooth="yes"/>
      <point x="386" y="129"/>
      <point x="393" y="126"/>
      <point x="396" y="126" type="curve"/>
      <point x="396" y="103"/>
      <point x="438" y="14"/>
      <point x="438" y="-11" type="curve" smooth="yes"/>
      <point x="438" y="-48"/>
      <point x="415" y="-59"/>
      <point x="400" y="-59" type="curve" smooth="yes"/>
      <point x="379" y="-59"/>
      <point x="356" y="-49"/>
      <point x="356" y="-12" type="curve" smooth="yes"/>
      <point x="356" y="24"/>
      <point x="386" y="103"/>
    </contour>
    <contour>
      <point x="338" y="179" type="curve"/>
      <point x="325" y="192" type="line"/>
      <point x="311" y="178"/>
      <point x="193" y="137"/>
      <point x="163" y="107" type="curve" smooth="yes"/>
      <point x="132" y="75"/>
      <point x="130" y="33"/>
      <point x="159" y="5" type="curve" smooth="yes"/>
      <point x="188" y="-24"/>
      <point x="229" y="-23"/>
      <point x="259" y="7" type="curve" smooth="yes"/>
      <point x="283" y="31"/>
      <point x="322" y="164"/>
    </contour>
    <contour>
      <point x="302" y="163" type="curve" smooth="yes"/>
      <point x="304" y="165"/>
      <point x="306" y="159"/>
      <point x="309" y="156" type="curve"/>
      <point x="292" y="139"/>
      <point x="259" y="47"/>
      <point x="242" y="30" type="curve" smooth="yes"/>
      <point x="215" y="3"/>
      <point x="191" y="12"/>
      <point x="180" y="22" type="curve" smooth="yes"/>
      <point x="166" y="37"/>
      <point x="157" y="61"/>
      <point x="183" y="87" type="curve" smooth="yes"/>
      <point x="208" y="113"/>
      <point x="285" y="147"/>
    </contour>
    <contour>
      <point x="308" y="239" type="curve"/>
      <point x="308" y="257" type="line"/>
      <point x="288" y="257"/>
      <point x="176" y="311"/>
      <point x="133" y="311" type="curve" smooth="yes"/>
      <point x="89" y="311"/>
      <point x="58" y="282"/>
      <point x="58" y="242" type="curve" smooth="yes"/>
      <point x="58" y="201"/>
      <point x="88" y="173"/>
      <point x="131" y="173" type="curve" smooth="yes"/>
      <point x="164" y="173"/>
      <point x="286" y="239"/>
    </contour>
    <contour>
      <point x="271" y="253" type="curve" smooth="yes"/>
      <point x="274" y="253"/>
      <point x="271" y="246"/>
      <point x="271" y="243" type="curve"/>
      <point x="248" y="243"/>
      <point x="159" y="201"/>
      <point x="134" y="201" type="curve" smooth="yes"/>
      <point x="97" y="201"/>
      <point x="86" y="224"/>
      <point x="86" y="239" type="curve" smooth="yes"/>
      <point x="86" y="260"/>
      <point x="96" y="283"/>
      <point x="133" y="283" type="curve" smooth="yes"/>
      <point x="169" y="283"/>
      <point x="248" y="253"/>
    </contour>
    <contour>
      <point x="324" y="299" type="curve"/>
      <point x="337" y="312" type="line"/>
      <point x="323" y="326"/>
      <point x="282" y="443"/>
      <point x="252" y="473" type="curve" smooth="yes"/>
      <point x="220" y="504"/>
      <point x="178" y="506"/>
      <point x="150" y="477" type="curve" smooth="yes"/>
      <point x="121" y="449"/>
      <point x="122" y="407"/>
      <point x="152" y="377" type="curve" smooth="yes"/>
      <point x="176" y="354"/>
      <point x="309" y="314"/>
    </contour>
    <contour>
      <point x="308" y="335" type="curve" smooth="yes"/>
      <point x="310" y="333"/>
      <point x="304" y="330"/>
      <point x="301" y="328" type="curve"/>
      <point x="284" y="344"/>
      <point x="192" y="377"/>
      <point x="175" y="395" type="curve" smooth="yes"/>
      <point x="148" y="421"/>
      <point x="157" y="445"/>
      <point x="167" y="456" type="curve" smooth="yes"/>
      <point x="182" y="471"/>
      <point x="206" y="480"/>
      <point x="232" y="454" type="curve" smooth="yes"/>
      <point x="258" y="428"/>
      <point x="292" y="351"/>
    </contour>
  </outline>
</glyph>
<glyph name="comma" format="2">
  <advance width="352"/>
  <unicode hex="002C"/>
  <outline>
    <contour>
      <point x="27" y="-187" type="curve"/>
      <point x="54" y="-208" type="line"/>
      <point x="134" y="-152"/>
      <point x="201" y="-70"/>
      <point x="215" y="-11" type="curve" smooth="yes"/>
      <point x="236" y="83"/>
      <point x="208" y="149"/>
      <point x="144" y="149" type="curve" smooth="yes"/>
      <point x="110" y="149"/>
      <point x="80" y="127"/>
      <point x="73" y="95" type="curve" smooth="yes"/>
      <point x="65" y="57"/>
      <point x="79" y="30"/>
      <point x="107" y="30" type="curve" smooth="yes"/>
      <point x="151" y="30"/>
      <point x="157" y="-7"/>
      <point x="145" y="-59" type="curve" smooth="yes"/>
      <point x="138" y="-88"/>
      <point x="89" y="-142"/>
    </contour>
  </outline>
</glyph>
<glyph name="hyphen" format="2">
  <advance width="403"/>
  <unicode hex="002D"/>
  <outline>
    <contour>
      <point x="89" y="285" type="line"/>
      <point x="62" y="223" type="line"/>
      <point x="326" y="223" type="line"/>
      <point x="353" y="285" type="line"/>
    </contour>
  </outline>
</glyph>
<glyph name="period" format="2">
  <advance width="293"/>
  <unicode hex="002E"/>
  <outline>
    <contour>
      <point x="105" y="-4" type="curve" smooth="yes"/>
      <point x="137" y="-4"/>
      <point x="163" y="28"/>
      <point x="163" y="67" type="curve" smooth="yes"/>
      <point x="163" y="106"/>
      <point x="137" y="138"/>
      <point x="105" y="138" type="curve" smooth="yes"/>
      <point x="73" y="138"/>
      <point x="47" y="106"/>
      <point x="47" y="67" type="curve" smooth="yes"/>
      <point x="47" y="28"/>
      <point x="73" y="-4"/>
    </contour>
  </outline>
</glyph>
<glyph name="colon" format="2">
  <advance width="311"/>
  <unicode hex="003A"/>
  <outline>
    <contour>
      <point x="176" y="348" type="curve" smooth="yes"/>
      <point x="211" y="340"/>
      <point x="251" y="357"/>
      <point x="264" y="387" type="curve" smooth="yes"/>
      <point x="277" y="415"/>
      <point x="257" y="445"/>
      <point x="221" y="453" type="curve" smooth="yes"/>
      <point x="185" y="461"/>
      <point x="145" y="444"/>
      <point x="133" y="415" type="curve" smooth="yes"/>
      <point x="120" y="386"/>
      <point x="139" y="356"/>
    </contour>
    <contour>
      <point x="88" y="8" type="curve" smooth="yes"/>
      <point x="123" y="0"/>
      <point x="163" y="17"/>
      <point x="176" y="47" type="curve" smooth="yes"/>
      <point x="188" y="75"/>
      <point x="168" y="105"/>
      <point x="133" y="113" type="curve" smooth="yes"/>
      <point x="97" y="121"/>
      <point x="57" y="104"/>
      <point x="44" y="75" type="curve" smooth="yes"/>
      <point x="31" y="46"/>
      <point x="50" y="16"/>
    </contour>
  </outline>
</glyph>
<glyph name="semicolon" format="2">
  <advance width="381"/>
  <unicode hex="003B"/>
  <outline>
    <contour>
      <point x="-4" y="-109" type="curve"/>
      <point x="14" y="-132" type="line"/>
      <point x="99" y="-103"/>
      <point x="171" y="-45"/>
      <point x="202" y="7" type="curve" smooth="yes"/>
      <point x="250" y="90"/>
      <point x="248" y="162"/>
      <point x="196" y="183" type="curve" smooth="yes"/>
      <point x="168" y="193"/>
      <point x="138" y="181"/>
      <point x="121" y="152" type="curve" smooth="yes"/>
      <point x="101" y="119"/>
      <point x="104" y="89"/>
      <point x="128" y="80" type="curve" smooth="yes"/>
      <point x="163" y="66"/>
      <point x="162" y="23"/>
      <point x="135" y="-23" type="curve" smooth="yes"/>
      <point x="119" y="-49"/>
      <point x="61" y="-85"/>
    </contour>
    <contour>
      <point x="196" y="348" type="curve" smooth="yes"/>
      <point x="231" y="340"/>
      <point x="271" y="357"/>
      <point x="284" y="387" type="curve" smooth="yes"/>
      <point x="297" y="415"/>
      <point x="277" y="445"/>
      <point x="241" y="453" type="curve" smooth="yes"/>
      <point x="205" y="461"/>
      <point x="165" y="444"/>
      <point x="153" y="415" type="curve" smooth="yes"/>
      <point x="140" y="386"/>
      <point x="159" y="356"/>
    </contour>
  </outline>
</glyph>
<glyph name="A" format="2">
  <advance width="703"/>
  <unicode hex="0041"/>
  <anchor x="442" y="635" name="top"/>
  <anchor x="286" y="0" name="bottom"/>
  <anchor x="570" y="10" name="ogonek"/>
  <outline>
    <contour>
      <point x="348" y="-2" type="line"/>
      <point x="615" y="0" type="line"/>
      <point x="621" y="46" type="line"/>
      <point x="601" y="46" type="line" smooth="yes"/>
      <point x="573" y="46"/>
      <point x="546" y="90"/>
      <point x="540" y="152" type="curve" smooth="yes"/>
      <point x="501" y="679" type="line"/>
      <point x="501" y="719" type="line"/>
      <point x="489" y="728" type="line"/>
      <point x="468" y="716"/>
      <point x="437" y="704"/>
      <point x="401" y="700" type="curve"/>
      <point x="393" y="666" type="line"/>
      <point x="418" y="659" type="line"/>
      <point x="438" y="388"/>
      <point x="454" y="170"/>
      <point x="457" y="107" type="curve" smooth="yes"/>
      <point x="458" y="70"/>
      <point x="437" y="44"/>
      <point x="408" y="44" type="curve" smooth="yes"/>
      <point x="355" y="44" type="line"/>
    </contour>
    <contour>
      <point x="-33" y="1" type="line"/>
      <point x="221" y="1" type="line"/>
      <point x="227" y="46" type="line"/>
      <point x="221" y="46"/>
      <point x="225" y="47"/>
      <point x="210" y="47" type="curve" smooth="yes"/>
      <point x="165" y="47"/>
      <point x="146" y="77"/>
      <point x="163" y="119" type="curve"/>
      <point x="431" y="660" type="line"/>
      <point x="400" y="686" type="line"/>
      <point x="294" y="480"/>
      <point x="177" y="258"/>
      <point x="118" y="123" type="curve" smooth="yes"/>
      <point x="98" y="78"/>
      <point x="59" y="47"/>
      <point x="22" y="47" type="curve" smooth="yes"/>
      <point x="-27" y="47" type="line"/>
    </contour>
    <contour>
      <point x="233" y="288" type="line"/>
      <point x="498" y="288" type="line"/>
      <point x="509" y="338" type="line"/>
      <point x="244" y="338" type="line"/>
    </contour>
  </outline>
</glyph>
<glyph name="B" format="2">
  <advance width="627"/>
  <unicode hex="0042"/>
  <outline>
    <contour>
      <point x="0" y="0" type="line"/>
      <point x="35" y="0"/>
      <point x="66" y="2"/>
      <point x="109" y="2" type="curve" smooth="yes"/>
      <point x="153" y="2"/>
      <point x="259" y="0"/>
      <point x="303" y="0" type="curve" smooth="yes"/>
      <point x="419" y="0"/>
      <point x="519" y="78"/>
      <point x="544" y="188" type="curve" smooth="yes"/>
      <point x="570" y="299"/>
      <point x="490" y="377"/>
      <point x="353" y="377" type="curve" smooth="yes"/>
      <point x="223" y="377" type="line"/>
      <point x="213" y="336" type="line"/>
      <point x="256" y="336"/>
      <point x="307" y="336"/>
      <point x="343" y="336" type="curve" smooth="yes"/>
      <point x="416" y="336"/>
      <point x="454" y="273"/>
      <point x="433" y="185" type="curve" smooth="yes"/>
      <point x="412" y="95"/>
      <point x="350" y="31"/>
      <point x="284" y="31" type="curve" smooth="yes"/>
      <point x="221" y="31"/>
      <point x="180" y="57"/>
      <point x="189" y="94" type="curve" smooth="yes"/>
      <point x="321" y="669" type="line"/>
      <point x="346" y="669"/>
      <point x="385" y="669"/>
      <point x="412" y="669" type="curve" smooth="yes"/>
      <point x="474" y="669"/>
      <point x="505" y="609"/>
      <point x="485" y="523" type="curve" smooth="yes"/>
      <point x="465" y="437"/>
      <point x="394" y="377"/>
      <point x="313" y="377" type="curve"/>
      <point x="306" y="344" type="line"/>
      <point x="445" y="344"/>
      <point x="563" y="426"/>
      <point x="589" y="541" type="curve" smooth="yes"/>
      <point x="610" y="629"/>
      <point x="541" y="694"/>
      <point x="424" y="699" type="curve"/>
      <point x="427" y="698"/>
      <point x="368" y="698"/>
      <point x="283" y="698" type="curve" smooth="yes"/>
      <point x="259" y="698"/>
      <point x="169" y="700"/>
      <point x="154" y="700" type="curve"/>
      <point x="148" y="655" type="line"/>
      <point x="155" y="655"/>
      <point x="161" y="655"/>
      <point x="170" y="655" type="curve" smooth="yes"/>
      <point x="209" y="655"/>
      <point x="231" y="630"/>
      <point x="223" y="594" type="curve" smooth="yes"/>
      <point x="212" y="545"/>
      <point x="106" y="122"/>
      <point x="98" y="89" type="curve" smooth="yes"/>
      <point x="93" y="64"/>
      <point x="67" y="46"/>
      <point x="37" y="46" type="curve" smooth="yes"/>
      <point x="6" y="46" type="line"/>
    </contour>
  </outline>
</glyph>
<glyph name="C" format="2">
  <advance width="707"/>
  <unicode hex="0043"/>
  <outline>
    <contour>
      <point x="339" y="-8" type="curve" smooth="yes"/>
      <point x="438" y="-8"/>
      <point x="547" y="44"/>
      <point x="614" y="118" type="curve"/>
      <point x="647" y="249" type="line"/>
      <point x="611" y="251" type="line"/>
      <point x="570" y="124"/>
      <point x="480" y="34"/>
      <point x="368" y="34" type="curve" smooth="yes"/>
      <point x="227" y="34"/>
      <point x="156" y="192"/>
      <point x="207" y="415" type="curve" smooth="yes"/>
      <point x="244" y="574"/>
      <point x="361" y="687"/>
      <point x="477" y="687" type="curve" smooth="yes"/>
      <point x="585" y="687"/>
      <point x="644" y="624"/>
      <point x="643" y="536" type="curve"/>
      <point x="681" y="536" type="line"/>
      <point x="712" y="707" type="line"/>
      <point x="672" y="707" type="line"/>
      <point x="663" y="689"/>
      <point x="668" y="677"/>
      <point x="660" y="677" type="curve"/>
      <point x="628" y="705"/>
      <point x="549" y="725"/>
      <point x="485" y="725" type="curve" smooth="yes"/>
      <point x="295" y="725"/>
      <point x="137" y="573"/>
      <point x="87" y="359" type="curve" smooth="yes"/>
      <point x="38" y="144"/>
      <point x="148" y="-8"/>
    </contour>
  </outline>
</glyph>
<glyph name="D" format="2">
  <advance width="745"/>
  <unicode hex="0044"/>
  <outline>
    <contour>
      <point x="-7" y="-3" type="line"/>
      <point x="46" y="-1"/>
      <point x="112" y="0"/>
      <point x="150" y="0" type="curve" smooth="yes"/>
      <point x="199" y="0"/>
      <point x="260" y="-3"/>
      <point x="317" y="-3" type="curve" smooth="yes"/>
      <point x="507" y="-3"/>
      <point x="680" y="160"/>
      <point x="733" y="390" type="curve" smooth="yes"/>
      <point x="775" y="573"/>
      <point x="682" y="702"/>
      <point x="507" y="702" type="curve" smooth="yes"/>
      <point x="454" y="702"/>
      <point x="333" y="700"/>
      <point x="307" y="700" type="curve" smooth="yes"/>
      <point x="282" y="700"/>
      <point x="238" y="702"/>
      <point x="226" y="702" type="curve" smooth="yes"/>
      <point x="164" y="702" type="line"/>
      <point x="157" y="655" type="line"/>
      <point x="168" y="655"/>
      <point x="168" y="655"/>
      <point x="191" y="655" type="curve" smooth="yes"/>
      <point x="235" y="655"/>
      <point x="258" y="619"/>
      <point x="246" y="569" type="curve" smooth="yes"/>
      <point x="231" y="502"/>
      <point x="149" y="163"/>
      <point x="141" y="132" type="curve" smooth="yes"/>
      <point x="127" y="71"/>
      <point x="81" y="45"/>
      <point x="30" y="45" type="curve" smooth="yes"/>
      <point x="0" y="45" type="line"/>
    </contour>
    <contour>
      <point x="331" y="50" type="curve" smooth="yes"/>
      <point x="257" y="50"/>
      <point x="212" y="63"/>
      <point x="221" y="107" type="curve" smooth="yes"/>
      <point x="350" y="649" type="line"/>
      <point x="388" y="649"/>
      <point x="441" y="649"/>
      <point x="471" y="649" type="curve" smooth="yes"/>
      <point x="593" y="649"/>
      <point x="660" y="546"/>
      <point x="619" y="368" type="curve" smooth="yes"/>
      <point x="573" y="168"/>
      <point x="449" y="50"/>
    </contour>
  </outline>
</glyph>
<glyph name="E" format="2">
  <advance width="600"/>
  <unicode hex="0045"/>
  <outline>
    <contour>
      <point x="230" y="-1" type="curve" smooth="yes"/>
      <point x="440" y="-1" type="line"/>
      <point x="540" y="143" type="line"/>
      <point x="505" y="158" type="line"/>
      <point x="449" y="82"/>
      <point x="383" y="52"/>
      <point x="345" y="52" type="curve" smooth="yes"/>
      <point x="328" y="52"/>
      <point x="219" y="52"/>
      <point x="197" y="52" type="curve" smooth="yes"/>
      <point x="173" y="52"/>
      <point x="163" y="56"/>
      <point x="170" y="88" type="curve" smooth="yes"/>
      <point x="197" y="202"/>
      <point x="288" y="599"/>
      <point x="293" y="620" type="curve" smooth="yes"/>
      <point x="299" y="646"/>
      <point x="327" y="648"/>
      <point x="363" y="648" type="curve" smooth="yes"/>
      <point x="380" y="648"/>
      <point x="469" y="648"/>
      <point x="480" y="648" type="curve" smooth="yes"/>
      <point x="532" y="648"/>
      <point x="543" y="625"/>
      <point x="529" y="561" type="curve"/>
      <point x="569" y="561" type="line"/>
      <point x="601" y="700" type="line"/>
      <point x="530" y="700"/>
      <point x="405" y="700"/>
      <point x="388" y="700" type="curve" smooth="yes"/>
      <point x="371" y="700"/>
      <point x="290" y="697"/>
      <point x="278" y="697" type="curve" smooth="yes"/>
      <point x="265" y="697"/>
      <point x="183" y="700"/>
      <point x="164" y="700" type="curve"/>
      <point x="156" y="650" type="line"/>
      <point x="194" y="650"/>
      <point x="213" y="643"/>
      <point x="206" y="609" type="curve" smooth="yes"/>
      <point x="200" y="585"/>
      <point x="107" y="181"/>
      <point x="97" y="137" type="curve" smooth="yes"/>
      <point x="82" y="76"/>
      <point x="56" y="51"/>
      <point x="29" y="51" type="curve" smooth="yes"/>
      <point x="-1" y="51" type="line"/>
      <point x="-8" y="0" type="line"/>
      <point x="18" y="0"/>
      <point x="70" y="0"/>
      <point x="107" y="0" type="curve" smooth="yes"/>
      <point x="145" y="0"/>
      <point x="199" y="-1"/>
    </contour>
    <contour>
      <point x="418" y="260" type="curve"/>
      <point x="459" y="260" type="line"/>
      <point x="471" y="327"/>
      <point x="487" y="395"/>
      <point x="506" y="462" type="curve"/>
      <point x="464" y="462" type="line"/>
      <point x="450" y="403"/>
      <point x="423" y="383"/>
      <point x="390" y="383" type="curve" smooth="yes"/>
      <point x="212" y="383" type="line"/>
      <point x="205" y="335" type="line"/>
      <point x="258" y="335"/>
      <point x="362" y="335"/>
      <point x="383" y="335" type="curve" smooth="yes"/>
      <point x="417" y="335"/>
      <point x="426" y="295"/>
    </contour>
  </outline>
</glyph>
<glyph name="F" format="2">
  <advance width="531"/>
  <unicode hex="0046"/>
  <outline>
    <contour>
      <point x="229" y="-1" type="curve"/>
      <point x="235" y="45" type="line"/>
      <point x="217" y="45"/>
      <point x="202" y="45"/>
      <point x="195" y="45" type="curve" smooth="yes"/>
      <point x="171" y="45"/>
      <point x="161" y="49"/>
      <point x="169" y="81" type="curve" smooth="yes"/>
      <point x="195" y="195"/>
      <point x="283" y="601"/>
      <point x="293" y="620" type="curve" smooth="yes"/>
      <point x="299" y="629"/>
      <point x="327" y="648"/>
      <point x="363" y="648" type="curve" smooth="yes"/>
      <point x="380" y="648"/>
      <point x="469" y="648"/>
      <point x="480" y="648" type="curve" smooth="yes"/>
      <point x="532" y="648"/>
      <point x="535" y="625"/>
      <point x="529" y="561" type="curve"/>
      <point x="569" y="561" type="line"/>
      <point x="593" y="700" type="line"/>
      <point x="522" y="700"/>
      <point x="405" y="700"/>
      <point x="388" y="700" type="curve" smooth="yes"/>
      <point x="371" y="700"/>
      <point x="290" y="697"/>
      <point x="278" y="697" type="curve" smooth="yes"/>
      <point x="265" y="697"/>
      <point x="183" y="700"/>
      <point x="164" y="700" type="curve"/>
      <point x="156" y="650" type="line"/>
      <point x="194" y="650"/>
      <point x="213" y="626"/>
      <point x="206" y="609" type="curve"/>
      <point x="199" y="585"/>
      <point x="107" y="181"/>
      <point x="97" y="137" type="curve" smooth="yes"/>
      <point x="81" y="69"/>
      <point x="54" y="44"/>
      <point x="28" y="44" type="curve" smooth="yes"/>
      <point x="-2" y="44" type="line"/>
      <point x="-8" y="0" type="line"/>
      <point x="18" y="0"/>
      <point x="70" y="0"/>
      <point x="107" y="0" type="curve" smooth="yes"/>
      <point x="144" y="0"/>
      <point x="197" y="-1"/>
    </contour>
    <contour>
      <point x="397" y="240" type="curve"/>
      <point x="438" y="240" type="line"/>
      <point x="450" y="307"/>
      <point x="475" y="415"/>
      <point x="493" y="482" type="curve"/>
      <point x="452" y="482" type="line"/>
      <point x="438" y="423"/>
      <point x="406" y="383"/>
      <point x="373" y="383" type="curve" smooth="yes"/>
      <point x="212" y="383" type="line"/>
      <point x="205" y="344" type="line"/>
      <point x="258" y="344"/>
      <point x="345" y="344"/>
      <point x="366" y="344" type="curve" smooth="yes"/>
      <point x="400" y="344"/>
      <point x="405" y="275"/>
    </contour>
  </outline>
</glyph>
<glyph name="G" format="2">
  <advance width="739"/>
  <unicode hex="0047"/>
  <outline>
    <contour>
      <point x="348" y="-20" type="curve" smooth="yes"/>
      <point x="414" y="-20"/>
      <point x="519" y="13"/>
      <point x="600" y="59" type="curve"/>
      <point x="603" y="78" type="line"/>
      <point x="595" y="84"/>
      <point x="591" y="94"/>
      <point x="592" y="101" type="curve" smooth="yes"/>
      <point x="595" y="114"/>
      <point x="616" y="199"/>
      <point x="621" y="222" type="curve" smooth="yes"/>
      <point x="628" y="252"/>
      <point x="650" y="274"/>
      <point x="673" y="274" type="curve" smooth="yes"/>
      <point x="693" y="274" type="line"/>
      <point x="701" y="327" type="line"/>
      <point x="433" y="327" type="line"/>
      <point x="425" y="273" type="line"/>
      <point x="445" y="273"/>
      <point x="505" y="273"/>
      <point x="510" y="273" type="curve" smooth="yes"/>
      <point x="531" y="273"/>
      <point x="538" y="234"/>
      <point x="525" y="180" type="curve" smooth="yes"/>
      <point x="502" y="80"/>
      <point x="430" y="10"/>
      <point x="363" y="10" type="curve" smooth="yes"/>
      <point x="230" y="10"/>
      <point x="152" y="150"/>
      <point x="197" y="347" type="curve" smooth="yes"/>
      <point x="242" y="540"/>
      <point x="376" y="676"/>
      <point x="522" y="676" type="curve" smooth="yes"/>
      <point x="614" y="676"/>
      <point x="662" y="606"/>
      <point x="663" y="507" type="curve"/>
      <point x="697" y="507" type="line"/>
      <point x="741" y="694" type="line"/>
      <point x="683" y="694"/>
      <point x="593" y="712"/>
      <point x="515" y="712" type="curve" smooth="yes"/>
      <point x="311" y="712"/>
      <point x="132" y="561"/>
      <point x="83" y="348" type="curve" smooth="yes"/>
      <point x="33" y="132"/>
      <point x="143" y="-20"/>
    </contour>
  </outline>
</glyph>
<glyph name="H" format="2">
  <advance width="796"/>
  <unicode hex="0048"/>
  <outline>
    <contour>
      <point x="409" y="0" type="line"/>
      <point x="693" y="0" type="line"/>
      <point x="700" y="46" type="line"/>
      <point x="695" y="46"/>
      <point x="690" y="46"/>
      <point x="684" y="46" type="curve" smooth="yes"/>
      <point x="642" y="46"/>
      <point x="609" y="63"/>
      <point x="621" y="112" type="curve" smooth="yes"/>
      <point x="626" y="137"/>
      <point x="729" y="581"/>
      <point x="734" y="605" type="curve" smooth="yes"/>
      <point x="743" y="644"/>
      <point x="779" y="655"/>
      <point x="803" y="655" type="curve" smooth="yes"/>
      <point x="827" y="655" type="line"/>
      <point x="834" y="700" type="line"/>
      <point x="574" y="700" type="line"/>
      <point x="568" y="655" type="line"/>
      <point x="577" y="655"/>
      <point x="585" y="655"/>
      <point x="596" y="655" type="curve" smooth="yes"/>
      <point x="630" y="655"/>
      <point x="660" y="652"/>
      <point x="654" y="624" type="curve" smooth="yes"/>
      <point x="649" y="601"/>
      <point x="543" y="146"/>
      <point x="539" y="125" type="curve" smooth="yes"/>
      <point x="525" y="68"/>
      <point x="482" y="46"/>
      <point x="450" y="46" type="curve" smooth="yes"/>
      <point x="416" y="46" type="line"/>
    </contour>
    <contour>
      <point x="-9" y="0" type="line"/>
      <point x="266" y="0" type="line"/>
      <point x="272" y="46" type="line"/>
      <point x="266" y="46"/>
      <point x="266" y="46"/>
      <point x="254" y="46" type="curve" smooth="yes"/>
      <point x="211" y="46"/>
      <point x="177" y="61"/>
      <point x="188" y="108" type="curve" smooth="yes"/>
      <point x="195" y="138"/>
      <point x="299" y="591"/>
      <point x="304" y="612" type="curve" smooth="yes"/>
      <point x="312" y="647"/>
      <point x="342" y="655"/>
      <point x="361" y="655" type="curve" smooth="yes"/>
      <point x="403" y="655" type="line"/>
      <point x="410" y="700" type="line"/>
      <point x="164" y="700" type="line"/>
      <point x="157" y="655" type="line"/>
      <point x="164" y="655"/>
      <point x="170" y="655"/>
      <point x="179" y="655" type="curve" smooth="yes"/>
      <point x="202" y="655"/>
      <point x="232" y="652"/>
      <point x="228" y="649" type="curve"/>
      <point x="201" y="599"/>
      <point x="116" y="164"/>
      <point x="108" y="132" type="curve" smooth="yes"/>
      <point x="94" y="71"/>
      <point x="53" y="46"/>
      <point x="31" y="46" type="curve" smooth="yes"/>
      <point x="-2" y="46" type="line"/>
    </contour>
    <contour>
      <point x="234" y="328" type="line"/>
      <point x="628" y="328" type="line"/>
      <point x="636" y="380" type="line"/>
      <point x="242" y="380" type="line"/>
    </contour>
  </outline>
</glyph>
<glyph name="I" format="2">
  <advance width="340"/>
  <unicode hex="0049"/>
  <outline>
    <contour>
      <point x="4" y="0" type="line"/>
      <point x="227" y="0" type="line"/>
      <point x="234" y="46" type="line"/>
      <point x="228" y="46"/>
      <point x="219" y="46"/>
      <point x="207" y="46" type="curve" smooth="yes"/>
      <point x="189" y="46"/>
      <point x="181" y="79"/>
      <point x="192" y="108" type="curve" smooth="yes"/>
      <point x="203" y="138"/>
      <point x="303" y="591"/>
      <point x="308" y="612" type="curve" smooth="yes"/>
      <point x="316" y="647"/>
      <point x="341" y="655"/>
      <point x="365" y="655" type="curve" smooth="yes"/>
      <point x="401" y="655" type="line"/>
      <point x="408" y="700" type="line"/>
      <point x="164" y="700" type="line"/>
      <point x="157" y="655" type="line"/>
      <point x="164" y="655"/>
      <point x="170" y="655"/>
      <point x="178" y="655" type="curve" smooth="yes"/>
      <point x="212" y="655"/>
      <point x="235" y="645"/>
      <point x="232" y="632" type="curve" smooth="yes"/>
      <point x="219" y="578"/>
      <point x="120" y="164"/>
      <point x="112" y="132" type="curve" smooth="yes"/>
      <point x="98" y="71"/>
      <point x="61" y="46"/>
      <point x="26" y="46" type="curve" smooth="yes"/>
      <point x="10" y="46" type="line"/>
    </contour>
  </outline>
</glyph>
<glyph name="J" format="2">
  <advance width="333"/>
  <unicode hex="004A"/>
  <outline>
    <contour>
      <point x="-102" y="-373" type="curve" smooth="yes"/>
      <point x="-11" y="-373"/>
      <point x="70" y="-294"/>
      <point x="96" y="-183" type="curve" smooth="yes"/>
      <point x="117" y="-92"/>
      <point x="270" y="570"/>
      <point x="279" y="611" type="curve" smooth="yes"/>
      <point x="288" y="649"/>
      <point x="326" y="657"/>
      <point x="370" y="655" type="curve" smooth="yes"/>
      <point x="395" y="654" type="line"/>
      <point x="402" y="700" type="line"/>
      <point x="139" y="700" type="line"/>
      <point x="132" y="654" type="line"/>
      <point x="140" y="654"/>
      <point x="146" y="655"/>
      <point x="155" y="655" type="curve" smooth="yes"/>
      <point x="186" y="655"/>
      <point x="204" y="654"/>
      <point x="198" y="628" type="curve" smooth="yes"/>
      <point x="189" y="591"/>
      <point x="3" y="-217"/>
      <point x="-6" y="-254" type="curve" smooth="yes"/>
      <point x="-18" y="-306"/>
      <point x="-53" y="-324"/>
      <point x="-91" y="-324" type="curve" smooth="yes"/>
      <point x="-133" y="-324"/>
      <point x="-158" y="-320"/>
      <point x="-150" y="-288" type="curve" smooth="yes"/>
      <point x="-144" y="-262"/>
      <point x="-131" y="-256"/>
      <point x="-127" y="-239" type="curve" smooth="yes"/>
      <point x="-124" y="-227"/>
      <point x="-137" y="-219"/>
      <point x="-157" y="-219" type="curve" smooth="yes"/>
      <point x="-181" y="-219"/>
      <point x="-204" y="-249"/>
      <point x="-214" y="-292" type="curve" smooth="yes"/>
      <point x="-225" y="-339"/>
      <point x="-179" y="-373"/>
    </contour>
  </outline>
</glyph>
<glyph name="K" format="2">
  <advance width="667"/>
  <unicode hex="004B"/>
  <outline>
    <contour>
      <point x="454" y="0" type="curve" smooth="yes"/>
      <point x="582" y="0" type="line"/>
      <point x="589" y="46" type="line"/>
      <point x="583" y="46" type="line" smooth="yes"/>
      <point x="559" y="46"/>
      <point x="532" y="45"/>
      <point x="506" y="87" type="curve" smooth="yes"/>
      <point x="315" y="398" type="line"/>
      <point x="402" y="477"/>
      <point x="494" y="568"/>
      <point x="514" y="589" type="curve" smooth="yes"/>
      <point x="545" y="621"/>
      <point x="613" y="642"/>
      <point x="634" y="642" type="curve" smooth="yes"/>
      <point x="674" y="642" type="line"/>
      <point x="682" y="696" type="line"/>
      <point x="457" y="696" type="line"/>
      <point x="449" y="643" type="line"/>
      <point x="473" y="643" type="line" smooth="yes"/>
      <point x="480" y="643"/>
      <point x="500" y="631"/>
      <point x="462" y="589" type="curve"/>
      <point x="229" y="376" type="line"/>
      <point x="254" y="486"/>
      <point x="281" y="575"/>
      <point x="285" y="594" type="curve" smooth="yes"/>
      <point x="296" y="640"/>
      <point x="321" y="655"/>
      <point x="343" y="655" type="curve" smooth="yes"/>
      <point x="372" y="655" type="line"/>
      <point x="378" y="700" type="line"/>
      <point x="164" y="700" type="line"/>
      <point x="158" y="655" type="line"/>
      <point x="181" y="655" type="line" smooth="yes"/>
      <point x="201" y="655"/>
      <point x="210" y="639"/>
      <point x="207" y="630" type="curve"/>
      <point x="81" y="83" type="line" smooth="yes"/>
      <point x="74" y="51"/>
      <point x="53" y="46"/>
      <point x="35" y="46" type="curve" smooth="yes"/>
      <point x="22" y="46" type="line"/>
      <point x="15" y="0" type="line"/>
      <point x="229" y="0" type="line"/>
      <point x="236" y="46" type="line"/>
      <point x="210" y="46" type="line" smooth="yes"/>
      <point x="177" y="46"/>
      <point x="160" y="52"/>
      <point x="168" y="87" type="curve" smooth="yes"/>
      <point x="220" y="318" type="line"/>
      <point x="236" y="333" type="line"/>
      <point x="411" y="36" type="line" smooth="yes"/>
      <point x="423" y="15"/>
      <point x="440" y="0"/>
    </contour>
  </outline>
</glyph>
<glyph name="L" format="2">
  <advance width="652"/>
  <unicode hex="004C"/>
  <outline>
    <contour>
      <point x="12" y="53" type="curve"/>
      <point x="4" y="0" type="line"/>
      <point x="504" y="0" type="line"/>
      <point x="599" y="162" type="line"/>
      <point x="557" y="169" type="line"/>
      <point x="513" y="91"/>
      <point x="446" y="53"/>
      <point x="395" y="53" type="curve" smooth="yes"/>
      <point x="336" y="53"/>
      <point x="273" y="53"/>
      <point x="254" y="53" type="curve" smooth="yes"/>
      <point x="220" y="53"/>
      <point x="200" y="74"/>
      <point x="213" y="130" type="curve" smooth="yes"/>
      <point x="224" y="179"/>
      <point x="312" y="558"/>
      <point x="323" y="608" type="curve" smooth="yes"/>
      <point x="332" y="645"/>
      <point x="383" y="655"/>
      <point x="442" y="655" type="curve" smooth="yes"/>
      <point x="459" y="655" type="line"/>
      <point x="465" y="700" type="line"/>
      <point x="164" y="700" type="line"/>
      <point x="157" y="655" type="line"/>
      <point x="179" y="655" type="line" smooth="yes"/>
      <point x="221" y="655"/>
      <point x="245" y="636"/>
      <point x="233" y="584" type="curve" smooth="yes"/>
      <point x="221" y="533"/>
      <point x="136" y="166"/>
      <point x="127" y="125" type="curve" smooth="yes"/>
      <point x="115" y="72"/>
      <point x="87" y="53"/>
      <point x="65" y="53" type="curve" smooth="yes"/>
      <point x="50" y="53"/>
      <point x="24" y="53"/>
    </contour>
  </outline>
</glyph>
<glyph name="M" format="2">
  <advance width="869"/>
  <unicode hex="004D"/>
  <outline>
    <contour>
      <point x="278" y="538" type="curve" smooth="yes"/>
      <point x="340" y="0" type="line"/>
      <point x="368" y="0" type="line"/>
      <point x="762" y="640" type="line"/>
      <point x="752" y="700" type="line"/>
      <point x="414" y="150" type="line"/>
      <point x="351" y="700" type="line"/>
      <point x="164" y="700" type="line"/>
      <point x="154" y="642" type="line"/>
      <point x="172" y="642"/>
      <point x="197" y="642"/>
      <point x="217" y="642" type="curve" smooth="yes"/>
      <point x="244" y="642"/>
      <point x="269" y="609"/>
    </contour>
    <contour>
      <point x="-9" y="0" type="line"/>
      <point x="222" y="0" type="line"/>
      <point x="228" y="45" type="line"/>
      <point x="219" y="45"/>
      <point x="212" y="45"/>
      <point x="203" y="45" type="curve" smooth="yes"/>
      <point x="159" y="45"/>
      <point x="134" y="54"/>
      <point x="143" y="92" type="curve" smooth="yes"/>
      <point x="273" y="639" type="line"/>
      <point x="224" y="639" type="line"/>
      <point x="185" y="467"/>
      <point x="116" y="187"/>
      <point x="106" y="141" type="curve" smooth="yes"/>
      <point x="90" y="74"/>
      <point x="71" y="45"/>
      <point x="35" y="45" type="curve" smooth="yes"/>
      <point x="-2" y="45" type="line"/>
    </contour>
    <contour>
      <point x="503" y="0" type="line"/>
      <point x="766" y="0" type="line"/>
      <point x="772" y="46" type="line"/>
      <point x="763" y="46"/>
      <point x="756" y="46"/>
      <point x="745" y="46" type="curve" smooth="yes"/>
      <point x="707" y="46"/>
      <point x="687" y="53"/>
      <point x="695" y="88" type="curve" smooth="yes"/>
      <point x="704" y="126"/>
      <point x="808" y="580"/>
      <point x="816" y="611" type="curve" smooth="yes"/>
      <point x="822" y="640"/>
      <point x="842" y="643"/>
      <point x="864" y="643" type="curve" smooth="yes"/>
      <point x="899" y="643" type="line"/>
      <point x="908" y="700" type="line"/>
      <point x="751" y="700" type="line"/>
      <point x="705" y="498"/>
      <point x="616" y="114"/>
      <point x="611" y="91" type="curve" smooth="yes"/>
      <point x="602" y="54"/>
      <point x="589" y="46"/>
      <point x="578" y="46" type="curve" smooth="yes"/>
      <point x="511" y="46" type="line"/>
    </contour>
  </outline>
</glyph>
<glyph name="N" format="2">
  <advance width="780"/>
  <unicode hex="004E"/>
  <outline>
    <contour>
      <point x="246" y="634" type="curve" smooth="yes"/>
      <point x="589" y="-6" type="line"/>
      <point x="617" y="-6" type="line"/>
      <point x="662" y="189"/>
      <point x="742" y="535"/>
      <point x="753" y="579" type="curve" smooth="yes"/>
      <point x="765" y="633"/>
      <point x="805" y="672"/>
      <point x="849" y="672" type="curve" smooth="yes"/>
      <point x="882" y="672" type="line"/>
      <point x="888" y="700" type="line"/>
      <point x="618" y="700" type="line"/>
      <point x="612" y="672" type="line"/>
      <point x="621" y="672"/>
      <point x="656" y="672"/>
      <point x="668" y="672" type="curve" smooth="yes"/>
      <point x="704" y="672"/>
      <point x="723" y="640"/>
      <point x="712" y="594" type="curve" smooth="yes"/>
      <point x="610" y="164" type="line"/>
      <point x="322" y="700" type="line"/>
      <point x="163" y="697" type="line"/>
      <point x="156" y="669" type="line"/>
      <point x="167" y="669"/>
      <point x="177" y="669"/>
      <point x="189" y="669" type="curve" smooth="yes"/>
      <point x="211" y="669"/>
      <point x="234" y="654"/>
    </contour>
    <contour>
      <point x="17" y="0" type="line"/>
      <point x="275" y="0" type="line"/>
      <point x="281" y="27" type="line"/>
      <point x="230" y="27"/>
      <point x="226" y="27"/>
      <point x="217" y="27" type="curve" smooth="yes"/>
      <point x="173" y="27"/>
      <point x="149" y="54"/>
      <point x="157" y="92" type="curve" smooth="yes"/>
      <point x="287" y="656" type="line"/>
      <point x="238" y="656" type="line"/>
      <point x="199" y="484"/>
      <point x="130" y="187"/>
      <point x="120" y="141" type="curve" smooth="yes"/>
      <point x="104" y="74"/>
      <point x="85" y="27"/>
      <point x="49" y="27" type="curve" smooth="yes"/>
      <point x="23" y="27" type="line"/>
    </contour>
  </outline>
</glyph>
<glyph name="O" format="2">
  <advance width="786"/>
  <unicode hex="004F"/>
  <anchor x="455" y="635" name="top"/>
  <anchor x="327" y="0" name="bottom"/>
  <anchor x="434" y="350" name="center"/>
  <anchor x="914" y="700" name="topright"/>
  <anchor x="644" y="10" name="ogonek"/>
  <anchor x="168" y="700" name="topleft"/>
  <outline>
    <contour>
      <point x="325" y="-11" type="curve" smooth="yes"/>
      <point x="521" y="-11"/>
      <point x="696" y="145"/>
      <point x="747" y="365" type="curve" smooth="yes"/>
      <point x="794" y="572"/>
      <point x="691" y="719"/>
      <point x="497" y="719" type="curve" smooth="yes"/>
      <point x="306" y="719"/>
      <point x="136" y="572"/>
      <point x="89" y="365" type="curve" smooth="yes"/>
      <point x="38" y="145"/>
      <point x="135" y="-11"/>
    </contour>
    <contour>
      <point x="328" y="37" type="curve" smooth="yes"/>
      <point x="196" y="37"/>
      <point x="160" y="179"/>
      <point x="212" y="405" type="curve" smooth="yes"/>
      <point x="250" y="571"/>
      <point x="372" y="672"/>
      <point x="493" y="672" type="curve" smooth="yes"/>
      <point x="625" y="672"/>
      <point x="674" y="539"/>
      <point x="625" y="326" type="curve" smooth="yes"/>
      <point x="583" y="146"/>
      <point x="449" y="37"/>
    </contour>
  </outline>
</glyph>
<glyph name="P" format="2">
  <advance width="602"/>
  <unicode hex="0050"/>
  <outline>
    <contour>
      <point x="16" y="0" type="line"/>
      <point x="268" y="0" type="line"/>
      <point x="274" y="46" type="line"/>
      <point x="269" y="46"/>
      <point x="249" y="46"/>
      <point x="240" y="46" type="curve" smooth="yes"/>
      <point x="206" y="46"/>
      <point x="185" y="57"/>
      <point x="195" y="98" type="curve" smooth="yes"/>
      <point x="206" y="148"/>
      <point x="316" y="626"/>
      <point x="320" y="642" type="curve" smooth="yes"/>
      <point x="324" y="657"/>
      <point x="347" y="650"/>
      <point x="371" y="650" type="curve" smooth="yes"/>
      <point x="459" y="650"/>
      <point x="506" y="595"/>
      <point x="481" y="486" type="curve" smooth="yes"/>
      <point x="456" y="382"/>
      <point x="387" y="309"/>
      <point x="312" y="309" type="curve"/>
      <point x="305" y="279" type="line"/>
      <point x="440" y="279"/>
      <point x="555" y="369"/>
      <point x="584" y="497" type="curve" smooth="yes"/>
      <point x="612" y="616"/>
      <point x="542" y="702"/>
      <point x="416" y="702" type="curve" smooth="yes"/>
      <point x="370" y="702"/>
      <point x="298" y="699"/>
      <point x="274" y="699" type="curve" smooth="yes"/>
      <point x="260" y="699"/>
      <point x="215" y="702"/>
      <point x="164" y="702" type="curve"/>
      <point x="157" y="655" type="line"/>
      <point x="204" y="655"/>
      <point x="238" y="653"/>
      <point x="231" y="625" type="curve" smooth="yes"/>
      <point x="221" y="579"/>
      <point x="106" y="81"/>
      <point x="101" y="63" type="curve" smooth="yes"/>
      <point x="97" y="43"/>
      <point x="74" y="46"/>
      <point x="54" y="46" type="curve" smooth="yes"/>
      <point x="23" y="46" type="line"/>
    </contour>
  </outline>
</glyph>
<glyph name="Q" format="2">
  <advance width="766"/>
  <unicode hex="0051"/>
  <outline>
    <contour>
      <point x="322" y="-18" type="curve" smooth="yes"/>
      <point x="519" y="-18"/>
      <point x="693" y="138"/>
      <point x="744" y="358" type="curve" smooth="yes"/>
      <point x="792" y="565"/>
      <point x="688" y="712"/>
      <point x="494" y="712" type="curve" smooth="yes"/>
      <point x="303" y="712"/>
      <point x="134" y="565"/>
      <point x="86" y="358" type="curve" smooth="yes"/>
      <point x="35" y="138"/>
      <point x="133" y="-18"/>
    </contour>
    <contour>
      <point x="801" y="-175" type="curve" smooth="yes"/>
      <point x="829" y="-175"/>
      <point x="867" y="-171"/>
      <point x="894" y="-165" type="curve"/>
      <point x="899" y="-122" type="line"/>
      <point x="681" y="-135"/>
      <point x="495" y="-84"/>
      <point x="449" y="27" type="curve"/>
      <point x="399" y="8"/>
      <point x="354" y="-5"/>
      <point x="341" y="-5" type="curve" smooth="yes"/>
      <point x="315" y="-5"/>
      <point x="272" y="13"/>
      <point x="237" y="38" type="curve"/>
      <point x="236" y="8" type="line"/>
      <point x="353" y="-99"/>
      <point x="588" y="-175"/>
    </contour>
    <contour>
      <point x="335" y="30" type="curve" smooth="yes"/>
      <point x="204" y="30"/>
      <point x="157" y="172"/>
      <point x="209" y="398" type="curve" smooth="yes"/>
      <point x="248" y="564"/>
      <point x="370" y="665"/>
      <point x="490" y="665" type="curve" smooth="yes"/>
      <point x="622" y="665"/>
      <point x="671" y="532"/>
      <point x="622" y="319" type="curve" smooth="yes"/>
      <point x="580" y="139"/>
      <point x="456" y="30"/>
    </contour>
  </outline>
</glyph>
<glyph name="R" format="2">
  <advance width="660"/>
  <unicode hex="0052"/>
  <outline>
    <contour>
      <point x="490" y="-3" type="curve" smooth="yes"/>
      <point x="545" y="-3"/>
      <point x="601" y="-2"/>
      <point x="627" y="0" type="curve"/>
      <point x="634" y="47" type="line"/>
      <point x="633" y="46"/>
      <point x="618" y="46"/>
      <point x="600" y="46" type="curve" smooth="yes"/>
      <point x="577" y="46"/>
      <point x="529" y="41"/>
      <point x="518" y="66" type="curve" smooth="yes"/>
      <point x="444" y="226"/>
      <point x="382" y="340"/>
      <point x="372" y="357" type="curve"/>
      <point x="376" y="328" type="line"/>
      <point x="497" y="352"/>
      <point x="592" y="439"/>
      <point x="614" y="537" type="curve" smooth="yes"/>
      <point x="635" y="627"/>
      <point x="568" y="700"/>
      <point x="449" y="700" type="curve" smooth="yes"/>
      <point x="414" y="700"/>
      <point x="318" y="698"/>
      <point x="293" y="698" type="curve" smooth="yes"/>
      <point x="249" y="698"/>
      <point x="207" y="700"/>
      <point x="164" y="700" type="curve"/>
      <point x="157" y="655" type="line"/>
      <point x="163" y="655"/>
      <point x="163" y="655"/>
      <point x="175" y="655" type="curve" smooth="yes"/>
      <point x="215" y="655"/>
      <point x="242" y="639"/>
      <point x="232" y="593" type="curve" smooth="yes"/>
      <point x="219" y="539"/>
      <point x="119" y="103"/>
      <point x="112" y="73" type="curve" smooth="yes"/>
      <point x="106" y="47"/>
      <point x="78" y="46"/>
      <point x="55" y="46" type="curve" smooth="yes"/>
      <point x="27" y="46" type="line"/>
      <point x="21" y="0" type="line"/>
      <point x="259" y="0" type="line"/>
      <point x="265" y="46" type="line"/>
      <point x="254" y="46"/>
      <point x="237" y="46"/>
      <point x="212" y="46" type="curve" smooth="yes"/>
      <point x="200" y="46"/>
      <point x="191" y="46"/>
      <point x="197" y="72" type="curve" smooth="yes"/>
      <point x="207" y="116"/>
      <point x="316" y="588"/>
      <point x="324" y="625" type="curve" smooth="yes"/>
      <point x="330" y="648"/>
      <point x="354" y="648"/>
      <point x="375" y="648" type="curve" smooth="yes"/>
      <point x="396" y="648"/>
      <point x="409" y="648"/>
      <point x="429" y="648" type="curve" smooth="yes"/>
      <point x="493" y="648"/>
      <point x="524" y="601"/>
      <point x="504" y="517" type="curve" smooth="yes"/>
      <point x="483" y="426"/>
      <point x="405" y="380"/>
      <point x="315" y="380" type="curve" smooth="yes"/>
      <point x="218" y="380" type="line"/>
      <point x="210" y="327" type="line"/>
      <point x="299" y="327" type="line"/>
      <point x="339" y="219"/>
      <point x="389" y="114"/>
      <point x="416" y="60" type="curve" smooth="yes"/>
      <point x="433" y="23"/>
      <point x="461" y="-3"/>
    </contour>
  </outline>
</glyph>
<glyph name="S" format="2">
  <advance width="532"/>
  <unicode hex="0053"/>
  <outline>
    <contour>
      <point x="198" y="-16" type="curve" smooth="yes"/>
      <point x="324" y="-16"/>
      <point x="432" y="71"/>
      <point x="461" y="194" type="curve" smooth="yes"/>
      <point x="507" y="395"/>
      <point x="222" y="384"/>
      <point x="264" y="563" type="curve" smooth="yes"/>
      <point x="280" y="633"/>
      <point x="345" y="665"/>
      <point x="401" y="665" type="curve" smooth="yes"/>
      <point x="467" y="665"/>
      <point x="481" y="618"/>
      <point x="475" y="527" type="curve"/>
      <point x="505" y="527" type="line"/>
      <point x="546" y="704" type="line"/>
      <point x="508" y="704" type="line"/>
      <point x="503" y="673" type="line"/>
      <point x="485" y="696"/>
      <point x="443" y="712"/>
      <point x="400" y="712" type="curve" smooth="yes"/>
      <point x="289" y="712"/>
      <point x="192" y="634"/>
      <point x="166" y="524" type="curve" smooth="yes"/>
      <point x="121" y="329"/>
      <point x="404" y="334"/>
      <point x="361" y="148" type="curve" smooth="yes"/>
      <point x="343" y="70"/>
      <point x="268" y="32"/>
      <point x="198" y="32" type="curve" smooth="yes"/>
      <point x="112" y="32"/>
      <point x="95" y="95"/>
      <point x="120" y="209" type="curve"/>
      <point x="74" y="209" type="line"/>
      <point x="49" y="100" type="line"/>
      <point x="68" y="32"/>
      <point x="130" y="-16"/>
    </contour>
  </outline>
</glyph>
<glyph name="T" format="2">
  <advance width="612"/>
  <unicode hex="0054"/>
  <outline>
    <contour>
      <point x="135" y="0" type="line"/>
      <point x="391" y="0" type="line"/>
      <point x="397" y="46" type="line"/>
      <point x="388" y="46"/>
      <point x="381" y="46"/>
      <point x="369" y="46" type="curve" smooth="yes"/>
      <point x="357" y="46"/>
      <point x="308" y="50"/>
      <point x="313" y="66" type="curve"/>
      <point x="459" y="695" type="line"/>
      <point x="374" y="695" type="line"/>
      <point x="328" y="497"/>
      <point x="237" y="104"/>
      <point x="235" y="95" type="curve" smooth="yes"/>
      <point x="229" y="68"/>
      <point x="196" y="42"/>
      <point x="164" y="42" type="curve" smooth="yes"/>
      <point x="141" y="42" type="line"/>
    </contour>
    <contour>
      <point x="633" y="546" type="line"/>
      <point x="667" y="552" type="line"/>
      <point x="691" y="713" type="line"/>
      <point x="650" y="700" type="line"/>
      <point x="168" y="700" type="line"/>
      <point x="141" y="711" type="line"/>
      <point x="91" y="562" type="line"/>
      <point x="122" y="556" type="line"/>
      <point x="194" y="660" type="line"/>
      <point x="606" y="660" type="line"/>
    </contour>
  </outline>
</glyph>
<glyph name="U" format="2">
  <advance width="739"/>
  <unicode hex="0055"/>
  <anchor x="518" y="700" name="top"/>
  <anchor x="304" y="0" name="bottom"/>
  <anchor x="602" y="10" name="ogonek"/>
  <anchor x="867" y="700" name="topright"/>
  <outline>
    <contour>
      <point x="337" y="-11" type="curve" smooth="yes"/>
      <point x="484" y="-11"/>
      <point x="627" y="95"/>
      <point x="662" y="246" type="curve" smooth="yes"/>
      <point x="725" y="512"/>
      <point x="764" y="678"/>
      <point x="747" y="611" type="curve" smooth="yes"/>
      <point x="754" y="639"/>
      <point x="779" y="654"/>
      <point x="806" y="654" type="curve" smooth="yes"/>
      <point x="817" y="654" type="line"/>
      <point x="824" y="699" type="line"/>
      <point x="586" y="699" type="line"/>
      <point x="579" y="654" type="line"/>
      <point x="611" y="654"/>
      <point x="663" y="654"/>
      <point x="674" y="654" type="curve" smooth="yes"/>
      <point x="687" y="654"/>
      <point x="694" y="639"/>
      <point x="685" y="603" type="curve" smooth="yes"/>
      <point x="625" y="351"/>
      <point x="619" y="330"/>
      <point x="602" y="241" type="curve"/>
      <point x="575" y="129"/>
      <point x="466" y="49"/>
      <point x="338" y="49" type="curve" smooth="yes"/>
      <point x="226" y="49"/>
      <point x="167" y="109"/>
      <point x="187" y="193" type="curve" smooth="yes"/>
      <point x="260" y="516"/>
      <point x="274" y="569"/>
      <point x="287" y="626" type="curve" smooth="yes"/>
      <point x="291" y="639"/>
      <point x="313" y="654"/>
      <point x="352" y="654" type="curve" smooth="yes"/>
      <point x="366" y="654" type="line"/>
      <point x="373" y="699" type="line"/>
      <point x="169" y="699" type="line"/>
      <point x="162" y="654" type="line"/>
      <point x="168" y="654"/>
      <point x="173" y="654"/>
      <point x="181" y="654" type="curve" smooth="yes"/>
      <point x="200" y="654"/>
      <point x="200" y="617"/>
      <point x="189" y="570" type="curve" smooth="yes"/>
      <point x="239" y="784"/>
      <point x="223" y="713"/>
      <point x="102" y="192" type="curve" smooth="yes"/>
      <point x="74" y="73"/>
      <point x="165" y="-11"/>
    </contour>
  </outline>
</glyph>
<glyph name="V" format="2">
  <advance width="609"/>
  <unicode hex="0056"/>
  <outline>
    <contour>
      <point x="167" y="627" type="curve"/>
      <point x="245" y="-12" type="line"/>
      <point x="277" y="0" type="line"/>
      <point x="619" y="641" type="line" smooth="yes"/>
      <point x="628" y="657"/>
      <point x="651" y="652"/>
      <point x="673" y="652" type="curve" smooth="yes"/>
      <point x="708" y="652" type="line"/>
      <point x="716" y="700" type="line"/>
      <point x="520" y="700" type="line"/>
      <point x="513" y="652" type="line"/>
      <point x="559" y="652" type="line" smooth="yes"/>
      <point x="579" y="652"/>
      <point x="586" y="658"/>
      <point x="577" y="641" type="curve" smooth="yes"/>
      <point x="315" y="150" type="line"/>
      <point x="252" y="621" type="line" smooth="yes"/>
      <point x="248" y="651"/>
      <point x="270" y="655"/>
      <point x="295" y="655" type="curve" smooth="yes"/>
      <point x="339" y="655" type="line"/>
      <point x="346" y="700" type="line"/>
      <point x="116" y="700" type="line"/>
      <point x="110" y="655" type="line"/>
      <point x="139" y="655" type="line" smooth="yes"/>
      <point x="151" y="655"/>
      <point x="162" y="653"/>
    </contour>
  </outline>
</glyph>
<glyph name="W" format="2">
  <advance width="883"/>
  <unicode hex="0057"/>
  <outline>
    <contour>
      <point x="498" y="627" type="curve"/>
      <point x="526" y="-12" type="line"/>
      <point x="557" y="0" type="line"/>
      <point x="883" y="641" type="line" smooth="yes"/>
      <point x="891" y="657"/>
      <point x="914" y="652"/>
      <point x="936" y="652" type="curve" smooth="yes"/>
      <point x="972" y="652" type="line"/>
      <point x="979" y="700" type="line"/>
      <point x="820" y="700" type="line"/>
      <point x="813" y="652" type="line"/>
      <point x="822" y="652" type="line" smooth="yes"/>
      <point x="843" y="652"/>
      <point x="842" y="646"/>
      <point x="840" y="641" type="curve" smooth="yes"/>
      <point x="609" y="167" type="line"/>
      <point x="588" y="616" type="line" smooth="yes"/>
      <point x="587" y="646"/>
      <point x="601" y="655"/>
      <point x="627" y="655" type="curve" smooth="yes"/>
      <point x="654" y="655" type="line"/>
      <point x="660" y="700" type="line"/>
      <point x="448" y="700" type="line"/>
      <point x="441" y="655" type="line"/>
      <point x="470" y="655" type="line" smooth="yes"/>
      <point x="482" y="655"/>
      <point x="494" y="653"/>
    </contour>
    <contour>
      <point x="167" y="627" type="curve"/>
      <point x="194" y="-12" type="line"/>
      <point x="226" y="0" type="line"/>
      <point x="585" y="655" type="line"/>
      <point x="542" y="655" type="line"/>
      <point x="278" y="164" type="line"/>
      <point x="256" y="621" type="line" smooth="yes"/>
      <point x="255" y="651"/>
      <point x="270" y="655"/>
      <point x="295" y="655" type="curve" smooth="yes"/>
      <point x="322" y="655" type="line"/>
      <point x="329" y="700" type="line"/>
      <point x="116" y="700" type="line"/>
      <point x="110" y="655" type="line"/>
      <point x="139" y="655" type="line" smooth="yes"/>
      <point x="151" y="655"/>
      <point x="162" y="653"/>
    </contour>
  </outline>
</glyph>
<glyph name="X" format="2">
  <advance width="656"/>
  <unicode hex="0058"/>
  <outline>
    <contour>
      <point x="313" y="0" type="line"/>
      <point x="568" y="0" type="line"/>
      <point x="574" y="46" type="line"/>
      <point x="549" y="46" type="line" smooth="yes"/>
      <point x="522" y="46"/>
      <point x="505" y="60"/>
      <point x="498" y="79" type="curve" smooth="yes"/>
      <point x="428" y="298"/>
      <point x="345" y="530"/>
      <point x="299" y="642" type="curve"/>
      <point x="297" y="650"/>
      <point x="309" y="655"/>
      <point x="328" y="655" type="curve" smooth="yes"/>
      <point x="380" y="655" type="line"/>
      <point x="387" y="700" type="line"/>
      <point x="149" y="700" type="line"/>
      <point x="142" y="655" type="line"/>
      <point x="152" y="655" type="line" smooth="yes"/>
      <point x="183" y="655"/>
      <point x="199" y="653"/>
      <point x="200" y="649" type="curve" smooth="yes"/>
      <point x="357" y="207"/>
      <point x="369" y="172"/>
      <point x="386" y="116" type="curve" smooth="yes"/>
      <point x="400" y="75"/>
      <point x="392" y="46"/>
      <point x="357" y="46" type="curve" smooth="yes"/>
      <point x="319" y="46" type="line"/>
    </contour>
    <contour>
      <point x="-24" y="46" type="curve"/>
      <point x="-31" y="0" type="line"/>
      <point x="198" y="0" type="line"/>
      <point x="204" y="46" type="line"/>
      <point x="197" y="46"/>
      <point x="198" y="46"/>
      <point x="181" y="46" type="curve" smooth="yes"/>
      <point x="139" y="46"/>
      <point x="127" y="70"/>
      <point x="152" y="104" type="curve" smooth="yes"/>
      <point x="163" y="117"/>
      <point x="253" y="217"/>
      <point x="370" y="346" type="curve"/>
      <point x="345" y="369" type="line"/>
      <point x="272" y="288"/>
      <point x="158" y="164"/>
      <point x="70" y="70" type="curve" smooth="yes"/>
      <point x="57" y="56"/>
      <point x="18" y="46"/>
    </contour>
    <contour>
      <point x="355" y="359" type="curve"/>
      <point x="381" y="336" type="line"/>
      <point x="664" y="651" type="line"/>
      <point x="665" y="651"/>
      <point x="676" y="655"/>
      <point x="691" y="655" type="curve" smooth="yes"/>
      <point x="726" y="655" type="line"/>
      <point x="733" y="700" type="line"/>
      <point x="502" y="700" type="line"/>
      <point x="496" y="655" type="line"/>
      <point x="508" y="655"/>
      <point x="517" y="655"/>
      <point x="560" y="655" type="curve" smooth="yes"/>
      <point x="593" y="655"/>
      <point x="581" y="624"/>
      <point x="543" y="579" type="curve" smooth="yes"/>
      <point x="538" y="574"/>
      <point x="409" y="422"/>
    </contour>
  </outline>
</glyph>
<glyph name="Y" format="2">
  <advance width="573"/>
  <unicode hex="0059"/>
  <outline>
    <contour>
      <point x="182" y="649" type="curve"/>
      <point x="255" y="292" type="line"/>
      <point x="331" y="319" type="line"/>
      <point x="265" y="632" type="line"/>
      <point x="264" y="643"/>
      <point x="277" y="655"/>
      <point x="308" y="655" type="curve" smooth="yes"/>
      <point x="383" y="655" type="line"/>
      <point x="390" y="700" type="line"/>
      <point x="126" y="700" type="line"/>
      <point x="120" y="655" type="line"/>
      <point x="155" y="655" type="line" smooth="yes"/>
      <point x="171" y="655"/>
      <point x="182" y="653"/>
    </contour>
    <contour>
      <point x="104" y="0" type="line"/>
      <point x="360" y="0" type="line"/>
      <point x="366" y="46" type="line"/>
      <point x="357" y="46"/>
      <point x="350" y="46"/>
      <point x="338" y="46" type="curve" smooth="yes"/>
      <point x="284" y="46"/>
      <point x="282" y="64"/>
      <point x="282" y="66" type="curve"/>
      <point x="340" y="314" type="line"/>
      <point x="255" y="314" type="line"/>
      <point x="204" y="95" type="line" smooth="yes"/>
      <point x="195" y="52"/>
      <point x="169" y="42"/>
      <point x="133" y="42" type="curve" smooth="yes"/>
      <point x="110" y="42" type="line"/>
    </contour>
    <contour>
      <point x="497" y="630" type="curve" smooth="yes"/>
      <point x="299" y="314" type="line"/>
      <point x="340" y="314" type="line"/>
      <point x="577" y="651" type="line"/>
      <point x="579" y="653"/>
      <point x="597" y="655"/>
      <point x="618" y="655" type="curve" smooth="yes"/>
      <point x="653" y="655" type="line"/>
      <point x="659" y="700" type="line"/>
      <point x="480" y="700" type="line"/>
      <point x="473" y="655" type="line"/>
      <point x="503" y="655" type="line" smooth="yes"/>
      <point x="506" y="655"/>
      <point x="506" y="645"/>
    </contour>
  </outline>
</glyph>
<glyph name="Z" format="2">
  <advance width="606"/>
  <unicode hex="005A"/>
  <outline>
    <contour>
      <point x="-10" y="0" type="curve"/>
      <point x="203" y="0" type="line"/>
      <point x="211" y="53" type="line"/>
      <point x="152" y="53" type="line" smooth="yes"/>
      <point x="132" y="53"/>
      <point x="131" y="52"/>
      <point x="150" y="77" type="curve" smooth="yes"/>
      <point x="616" y="649" type="line"/>
      <point x="628" y="700" type="line"/>
      <point x="228" y="700" type="line"/>
      <point x="128" y="482" type="line"/>
      <point x="174" y="476" type="line"/>
      <point x="240" y="587"/>
      <point x="305" y="648"/>
      <point x="329" y="648" type="curve" smooth="yes"/>
      <point x="497" y="648" type="line" smooth="yes"/>
      <point x="517" y="648"/>
      <point x="519" y="650"/>
      <point x="500" y="628" type="curve" smooth="yes"/>
      <point x="403" y="516"/>
      <point x="193" y="256"/>
    </contour>
    <contour>
      <point x="22" y="0" type="line"/>
      <point x="454" y="0" type="line"/>
      <point x="543" y="212" type="line"/>
      <point x="519" y="219" type="line"/>
      <point x="474" y="141"/>
      <point x="396" y="53"/>
      <point x="345" y="53" type="curve" smooth="yes"/>
      <point x="272" y="53" type="line"/>
      <point x="83" y="53" type="line"/>
      <point x="30" y="53" type="line"/>
    </contour>
  </outline>
</glyph>
<glyph name="a" format="2">
  <advance width="468"/>
  <unicode hex="0061"/>
  <anchor x="300" y="435" name="top"/>
  <anchor x="168" y="0" name="bottom"/>
  <anchor x="358" y="10" name="ogonek"/>
  <outline>
    <contour>
      <point x="82" y="-8" type="curve" smooth="yes"/>
      <point x="122" y="-8"/>
      <point x="207" y="53"/>
      <point x="288" y="140" type="curve"/>
      <point x="271" y="176" type="line"/>
      <point x="212" y="116"/>
      <point x="151" y="74"/>
      <point x="124" y="74" type="curve" smooth="yes"/>
      <point x="96" y="74"/>
      <point x="102" y="128"/>
      <point x="138" y="229" type="curve" smooth="yes"/>
      <point x="190" y="370"/>
      <point x="270" y="453"/>
      <point x="331" y="453" type="curve" smooth="yes"/>
      <point x="342" y="453"/>
      <point x="363" y="456"/>
      <point x="381" y="437" type="curve"/>
      <point x="419" y="476" type="line"/>
      <point x="403" y="495"/>
      <point x="378" y="508"/>
      <point x="359" y="508" type="curve" smooth="yes"/>
      <point x="245" y="508"/>
      <point x="117" y="379"/>
      <point x="50" y="197" type="curve" smooth="yes"/>
      <point x="7" y="77"/>
      <point x="20" y="-8"/>
    </contour>
    <contour>
      <point x="268" y="-8" type="curve" smooth="yes"/>
      <point x="329" y="-8"/>
      <point x="407" y="82"/>
      <point x="456" y="210" type="curve"/>
      <point x="426" y="228" type="line"/>
      <point x="391" y="137"/>
      <point x="350" y="72"/>
      <point x="327" y="72" type="curve" smooth="yes"/>
      <point x="307" y="72"/>
      <point x="312" y="105"/>
      <point x="339" y="177" type="curve" smooth="yes"/>
      <point x="377" y="284"/>
      <point x="429" y="421"/>
      <point x="465" y="508" type="curve"/>
      <point x="387" y="500" type="line"/>
      <point x="293" y="250"/>
      <point x="216" y="52"/>
      <point x="247" y="135" type="curve"/>
      <point x="216" y="51"/>
      <point x="225" y="-8"/>
    </contour>
  </outline>
</glyph>
<glyph name="b" format="2">
  <advance width="477"/>
  <unicode hex="0062"/>
  <outline>
    <contour>
      <point x="123" y="-8" type="curve" smooth="yes"/>
      <point x="234" y="-8"/>
      <point x="358" y="116"/>
      <point x="422" y="291" type="curve" smooth="yes"/>
      <point x="468" y="418"/>
      <point x="448" y="508"/>
      <point x="374" y="508" type="curve" smooth="yes"/>
      <point x="308" y="508"/>
      <point x="197" y="383"/>
      <point x="106" y="207" type="curve"/>
      <point x="135" y="172" type="line"/>
      <point x="201" y="315"/>
      <point x="277" y="417"/>
      <point x="317" y="417" type="curve" smooth="yes"/>
      <point x="370" y="417"/>
      <point x="371" y="351"/>
      <point x="330" y="234" type="curve" smooth="yes"/>
      <point x="292" y="127"/>
      <point x="230" y="52"/>
      <point x="181" y="52" type="curve" smooth="yes"/>
      <point x="129" y="52"/>
      <point x="98" y="86"/>
      <point x="95" y="133" type="curve"/>
      <point x="28" y="41" type="line"/>
      <point x="63" y="12"/>
      <point x="102" y="-8"/>
    </contour>
    <contour>
      <point x="97" y="18" type="line"/>
      <point x="117" y="79"/>
      <point x="262" y="572"/>
      <point x="305" y="700" type="curve"/>
      <point x="230" y="700" type="line"/>
      <point x="28" y="41" type="line"/>
    </contour>
    <contour>
      <point x="221" y="617" type="curve"/>
      <point x="230" y="700" type="line"/>
      <point x="116" y="700" type="line"/>
      <point x="108" y="655" type="line"/>
      <point x="162" y="658"/>
      <point x="210" y="642"/>
    </contour>
  </outline>
</glyph>
<glyph name="c" format="2">
  <advance width="404"/>
  <unicode hex="0063"/>
  <outline>
    <contour>
      <point x="137" y="-8" type="curve" smooth="yes"/>
      <point x="222" y="-8"/>
      <point x="288" y="55"/>
      <point x="335" y="144" type="curve"/>
      <point x="311" y="177" type="line"/>
      <point x="263" y="96"/>
      <point x="212" y="38"/>
      <point x="151" y="38" type="curve" smooth="yes"/>
      <point x="95" y="38"/>
      <point x="102" y="136"/>
      <point x="163" y="300" type="curve" smooth="yes"/>
      <point x="202" y="405"/>
      <point x="246" y="463"/>
      <point x="284" y="463" type="curve" smooth="yes"/>
      <point x="329" y="463"/>
      <point x="344" y="432"/>
      <point x="319" y="363" type="curve" smooth="yes"/>
      <point x="316" y="352"/>
      <point x="319" y="344"/>
      <point x="327" y="344" type="curve" smooth="yes"/>
      <point x="362" y="344"/>
      <point x="393" y="364"/>
      <point x="402" y="393" type="curve" smooth="yes"/>
      <point x="424" y="460"/>
      <point x="383" y="508"/>
      <point x="301" y="508" type="curve" smooth="yes"/>
      <point x="208" y="508"/>
      <point x="115" y="409"/>
      <point x="63" y="270" type="curve" smooth="yes"/>
      <point x="2" y="107"/>
      <point x="31" y="-8"/>
    </contour>
  </outline>
</glyph>
<glyph name="d" format="2">
  <advance width="468"/>
  <unicode hex="0064"/>
  <outline>
    <contour>
      <point x="88" y="-8" type="curve" smooth="yes"/>
      <point x="128" y="-8"/>
      <point x="209" y="53"/>
      <point x="286" y="140" type="curve"/>
      <point x="268" y="176" type="line"/>
      <point x="212" y="116"/>
      <point x="153" y="74"/>
      <point x="126" y="74" type="curve" smooth="yes"/>
      <point x="98" y="74"/>
      <point x="100" y="128"/>
      <point x="131" y="229" type="curve" smooth="yes"/>
      <point x="176" y="370"/>
      <point x="251" y="453"/>
      <point x="312" y="453" type="curve" smooth="yes"/>
      <point x="323" y="453"/>
      <point x="344" y="456"/>
      <point x="363" y="437" type="curve"/>
      <point x="399" y="476" type="line"/>
      <point x="382" y="495"/>
      <point x="357" y="508"/>
      <point x="338" y="508" type="curve" smooth="yes"/>
      <point x="224" y="508"/>
      <point x="102" y="379"/>
      <point x="45" y="197" type="curve" smooth="yes"/>
      <point x="8" y="77"/>
      <point x="26" y="-8"/>
    </contour>
    <contour>
      <point x="282" y="-8" type="curve" smooth="yes"/>
      <point x="345" y="-8"/>
      <point x="424" y="82"/>
      <point x="459" y="210" type="curve"/>
      <point x="429" y="228" type="line"/>
      <point x="403" y="137"/>
      <point x="362" y="72"/>
      <point x="340" y="72" type="curve" smooth="yes"/>
      <point x="320" y="72"/>
      <point x="321" y="109"/>
      <point x="346" y="185" type="curve" smooth="yes"/>
      <point x="516" y="700" type="line"/>
      <point x="440" y="700" type="line"/>
      <point x="259" y="143" type="line" smooth="yes"/>
      <point x="230" y="56"/>
      <point x="240" y="-8"/>
    </contour>
    <contour>
      <point x="435" y="617" type="curve"/>
      <point x="440" y="700" type="line"/>
      <point x="326" y="700" type="line"/>
      <point x="320" y="655" type="line"/>
      <point x="375" y="658"/>
      <point x="423" y="642"/>
    </contour>
  </outline>
</glyph>
<glyph name="e" format="2">
  <advance width="405"/>
  <unicode hex="0065"/>
  <outline>
    <contour>
      <point x="143" y="-8" type="curve" smooth="yes"/>
      <point x="208" y="-8"/>
      <point x="288" y="55"/>
      <point x="337" y="144" type="curve"/>
      <point x="313" y="177" type="line"/>
      <point x="264" y="96"/>
      <point x="200" y="38"/>
      <point x="158" y="38" type="curve" smooth="yes"/>
      <point x="102" y="38"/>
      <point x="97" y="128"/>
      <point x="152" y="280" type="curve" smooth="yes"/>
      <point x="194" y="397"/>
      <point x="252" y="463"/>
      <point x="286" y="463" type="curve" smooth="yes"/>
      <point x="312" y="463"/>
      <point x="313" y="431"/>
      <point x="289" y="361" type="curve" smooth="yes"/>
      <point x="268" y="302"/>
      <point x="201" y="261"/>
      <point x="126" y="261" type="curve"/>
      <point x="99" y="202" type="line"/>
      <point x="240" y="231"/>
      <point x="360" y="310"/>
      <point x="389" y="391" type="curve" smooth="yes"/>
      <point x="413" y="460"/>
      <point x="376" y="508"/>
      <point x="301" y="508" type="curve" smooth="yes"/>
      <point x="211" y="508"/>
      <point x="110" y="401"/>
      <point x="57" y="250" type="curve" smooth="yes"/>
      <point x="4" y="99"/>
      <point x="40" y="-8"/>
    </contour>
  </outline>
</glyph>
<glyph name="f" format="2">
  <advance width="323"/>
  <unicode hex="0066"/>
  <outline>
    <contour>
      <point x="-8" y="-208" type="curve" smooth="yes"/>
      <point x="57" y="-208"/>
      <point x="139" y="-63"/>
      <point x="176" y="142" type="curve" smooth="yes"/>
      <point x="241" y="507" type="line" smooth="yes"/>
      <point x="259" y="608"/>
      <point x="298" y="663"/>
      <point x="335" y="663" type="curve" smooth="yes"/>
      <point x="367" y="663"/>
      <point x="378" y="639"/>
      <point x="363" y="581" type="curve" smooth="yes"/>
      <point x="359" y="568"/>
      <point x="363" y="558"/>
      <point x="373" y="558" type="curve" smooth="yes"/>
      <point x="406" y="558"/>
      <point x="435" y="578"/>
      <point x="442" y="606" type="curve" smooth="yes"/>
      <point x="456" y="663"/>
      <point x="418" y="703"/>
      <point x="350" y="703" type="curve" smooth="yes"/>
      <point x="261" y="703"/>
      <point x="182" y="616"/>
      <point x="160" y="493" type="curve" smooth="yes"/>
      <point x="95" y="128" type="line" smooth="yes"/>
      <point x="61" y="-58"/>
      <point x="18" y="-167"/>
      <point x="7" y="-167" type="curve" smooth="yes"/>
      <point x="-25" y="-167"/>
      <point x="-36" y="-144"/>
      <point x="-21" y="-86" type="curve" smooth="yes"/>
      <point x="-17" y="-73"/>
      <point x="-21" y="-63"/>
      <point x="-31" y="-63" type="curve" smooth="yes"/>
      <point x="-64" y="-63"/>
      <point x="-93" y="-83"/>
      <point x="-100" y="-111" type="curve" smooth="yes"/>
      <point x="-114" y="-168"/>
      <point x="-76" y="-208"/>
    </contour>
    <contour>
      <point x="71" y="408" type="line"/>
      <point x="335" y="408" type="line"/>
      <point x="348" y="450" type="line"/>
      <point x="84" y="450" type="line"/>
    </contour>
  </outline>
</glyph>
<glyph name="g" format="2">
  <advance width="481"/>
  <unicode hex="0067"/>
  <outline>
    <contour>
      <point x="132" y="-208" type="curve" smooth="yes"/>
      <point x="259" y="-208"/>
      <point x="371" y="-152"/>
      <point x="403" y="-72" type="curve" smooth="yes"/>
      <point x="420" y="-30"/>
      <point x="381" y="18"/>
      <point x="309" y="44" type="curve" smooth="yes"/>
      <point x="218" y="77"/>
      <point x="177" y="114"/>
      <point x="184" y="134" type="curve" smooth="yes"/>
      <point x="194" y="159"/>
      <point x="217" y="179"/>
      <point x="239" y="182" type="curve"/>
      <point x="187" y="191" type="line"/>
      <point x="153" y="176"/>
      <point x="121" y="143"/>
      <point x="110" y="111" type="curve" smooth="yes"/>
      <point x="96" y="71"/>
      <point x="115" y="32"/>
      <point x="157" y="17" type="curve" smooth="yes"/>
      <point x="266" y="-22"/>
      <point x="335" y="-70"/>
      <point x="325" y="-98" type="curve" smooth="yes"/>
      <point x="310" y="-139"/>
      <point x="251" y="-154"/>
      <point x="184" y="-159" type="curve" smooth="yes"/>
      <point x="57" y="-167"/>
      <point x="-11" y="-135"/>
      <point x="20" y="-57" type="curve" smooth="yes"/>
      <point x="41" y="-2"/>
      <point x="98" y="45"/>
      <point x="157" y="56" type="curve"/>
      <point x="139" y="78" type="line"/>
      <point x="41" y="56"/>
      <point x="-46" y="-6"/>
      <point x="-70" y="-73" type="curve" smooth="yes"/>
      <point x="-98" y="-152"/>
      <point x="-14" y="-208"/>
    </contour>
    <contour>
      <point x="200" y="163" type="curve" smooth="yes"/>
      <point x="281" y="163"/>
      <point x="361" y="223"/>
      <point x="392" y="307" type="curve" smooth="yes"/>
      <point x="436" y="424"/>
      <point x="411" y="507"/>
      <point x="332" y="507" type="curve" smooth="yes"/>
      <point x="243" y="507"/>
      <point x="155" y="442"/>
      <point x="121" y="351" type="curve" smooth="yes"/>
      <point x="79" y="241"/>
      <point x="112" y="163"/>
    </contour>
    <contour>
      <point x="211" y="209" type="curve" smooth="yes"/>
      <point x="168" y="209"/>
      <point x="165" y="264"/>
      <point x="204" y="367" type="curve" smooth="yes"/>
      <point x="229" y="432"/>
      <point x="277" y="461"/>
      <point x="320" y="461" type="curve" smooth="yes"/>
      <point x="354" y="461"/>
      <point x="349" y="401"/>
      <point x="307" y="292" type="curve" smooth="yes"/>
      <point x="285" y="233"/>
      <point x="245" y="209"/>
    </contour>
    <contour>
      <point x="340" y="353" type="curve"/>
      <point x="359" y="334" type="line"/>
      <point x="400" y="408"/>
      <point x="435" y="461"/>
      <point x="445" y="461" type="curve" smooth="yes"/>
      <point x="457" y="461"/>
      <point x="469" y="454"/>
      <point x="474" y="445" type="curve"/>
      <point x="513" y="482" type="line"/>
      <point x="508" y="497"/>
      <point x="484" y="508"/>
      <point x="455" y="508" type="curve" smooth="yes"/>
      <point x="430" y="508"/>
      <point x="382" y="444"/>
    </contour>
  </outline>
</glyph>
<glyph name="h" format="2">
  <advance width="462"/>
  <unicode hex="0068"/>
  <outline>
    <contour>
      <point x="205" y="-8" type="curve" smooth="yes"/>
      <point x="271" y="-8"/>
      <point x="355" y="104"/>
      <point x="407" y="262" type="curve" smooth="yes"/>
      <point x="453" y="406"/>
      <point x="439" y="508"/>
      <point x="374" y="508" type="curve" smooth="yes"/>
      <point x="311" y="508"/>
      <point x="210" y="399"/>
      <point x="131" y="246" type="curve"/>
      <point x="155" y="228" type="line"/>
      <point x="210" y="349"/>
      <point x="276" y="434"/>
      <point x="315" y="434" type="curve" smooth="yes"/>
      <point x="372" y="434"/>
      <point x="380" y="354"/>
      <point x="333" y="215" type="curve" smooth="yes"/>
      <point x="304" y="128"/>
      <point x="272" y="67"/>
      <point x="256" y="67" type="curve" smooth="yes"/>
      <point x="216" y="67"/>
      <point x="257" y="106"/>
      <point x="217" y="106" type="curve" smooth="yes"/>
      <point x="196" y="106"/>
      <point x="177" y="95"/>
      <point x="172" y="80" type="curve" smooth="yes"/>
      <point x="154" y="28"/>
      <point x="167" y="-8"/>
    </contour>
    <contour>
      <point x="13" y="0" type="line"/>
      <point x="90" y="0" type="line"/>
      <point x="303" y="700" type="line"/>
      <point x="228" y="700" type="line"/>
    </contour>
    <contour>
      <point x="219" y="617" type="curve"/>
      <point x="228" y="700" type="line"/>
      <point x="114" y="700" type="line"/>
      <point x="106" y="655" type="line"/>
      <point x="160" y="658"/>
      <point x="207" y="642"/>
    </contour>
  </outline>
</glyph>
<glyph name="i" format="2">
  <advance width="283"/>
  <unicode hex="0069"/>
  <outline>
    <contour>
      <point x="231" y="612" type="curve" smooth="yes"/>
      <point x="262" y="612"/>
      <point x="293" y="633"/>
      <point x="301" y="659" type="curve" smooth="yes"/>
      <point x="309" y="685"/>
      <point x="291" y="706"/>
      <point x="260" y="706" type="curve" smooth="yes"/>
      <point x="229" y="706"/>
      <point x="199" y="685"/>
      <point x="191" y="659" type="curve" smooth="yes"/>
      <point x="183" y="633"/>
      <point x="200" y="612"/>
    </contour>
    <contour>
      <point x="138" y="323" type="curve" smooth="yes"/>
      <point x="72" y="143" type="line" smooth="yes"/>
      <point x="39" y="55"/>
      <point x="46" y="-8"/>
      <point x="90" y="-8" type="curve" smooth="yes"/>
      <point x="150" y="-8"/>
      <point x="230" y="86"/>
      <point x="283" y="218" type="curve"/>
      <point x="253" y="236" type="line"/>
      <point x="216" y="145"/>
      <point x="173" y="80"/>
      <point x="149" y="80" type="curve" smooth="yes"/>
      <point x="130" y="80"/>
      <point x="136" y="113"/>
      <point x="163" y="185" type="curve" smooth="yes"/>
      <point x="256" y="426" type="line" smooth="yes"/>
      <point x="276" y="474"/>
      <point x="264" y="508"/>
      <point x="229" y="508" type="curve" smooth="yes"/>
      <point x="156" y="508"/>
      <point x="70" y="418"/>
      <point x="21" y="290" type="curve"/>
      <point x="51" y="273" type="line"/>
      <point x="86" y="364"/>
      <point x="133" y="429"/>
      <point x="165" y="429" type="curve" smooth="yes"/>
      <point x="176" y="429"/>
      <point x="165" y="395"/>
    </contour>
  </outline>
</glyph>
<glyph name="j" format="2">
  <advance width="283"/>
  <unicode hex="006A"/>
  <outline>
    <contour>
      <point x="-65" y="-209" type="curve" smooth="yes"/>
      <point x="4" y="-209"/>
      <point x="95" y="-83"/>
      <point x="156" y="96" type="curve" smooth="yes"/>
      <point x="267" y="426" type="line" smooth="yes"/>
      <point x="283" y="474"/>
      <point x="270" y="508"/>
      <point x="235" y="508" type="curve" smooth="yes"/>
      <point x="162" y="508"/>
      <point x="81" y="418"/>
      <point x="39" y="290" type="curve"/>
      <point x="69" y="273" type="line"/>
      <point x="99" y="364"/>
      <point x="143" y="429"/>
      <point x="175" y="429" type="curve" smooth="yes"/>
      <point x="183" y="429"/>
      <point x="174" y="385"/>
      <point x="154" y="323" type="curve" smooth="yes"/>
      <point x="74" y="82" type="line" smooth="yes"/>
      <point x="26" y="-65"/>
      <point x="-26" y="-167"/>
      <point x="-52" y="-167" type="curve" smooth="yes"/>
      <point x="-81" y="-167"/>
      <point x="-91" y="-133"/>
      <point x="-76" y="-86" type="curve" smooth="yes"/>
      <point x="-72" y="-73"/>
      <point x="-76" y="-63"/>
      <point x="-85" y="-63" type="curve" smooth="yes"/>
      <point x="-118" y="-63"/>
      <point x="-148" y="-86"/>
      <point x="-157" y="-116" type="curve" smooth="yes"/>
      <point x="-174" y="-170"/>
      <point x="-136" y="-209"/>
    </contour>
    <contour>
      <point x="236" y="612" type="curve" smooth="yes"/>
      <point x="269" y="612"/>
      <point x="296" y="631"/>
      <point x="302" y="659" type="curve" smooth="yes"/>
      <point x="310" y="687"/>
      <point x="292" y="706"/>
      <point x="260" y="706" type="curve" smooth="yes"/>
      <point x="228" y="706"/>
      <point x="200" y="687"/>
      <point x="192" y="659" type="curve" smooth="yes"/>
      <point x="186" y="631"/>
      <point x="204" y="612"/>
    </contour>
  </outline>
</glyph>
<glyph name="k" format="2">
  <advance width="406"/>
  <unicode hex="006B"/>
  <outline>
    <contour>
      <point x="73" y="156" type="line"/>
      <point x="324" y="313" type="line" smooth="yes"/>
      <point x="378" y="347"/>
      <point x="414" y="418"/>
      <point x="412" y="461" type="curve" smooth="yes"/>
      <point x="411" y="489"/>
      <point x="389" y="508"/>
      <point x="358" y="508" type="curve" smooth="yes"/>
      <point x="291" y="508"/>
      <point x="197" y="421"/>
      <point x="131" y="298" type="curve"/>
      <point x="133" y="236" type="line"/>
      <point x="189" y="348"/>
      <point x="266" y="427"/>
      <point x="319" y="427" type="curve" smooth="yes"/>
      <point x="331" y="427"/>
      <point x="340" y="431"/>
      <point x="340" y="413" type="curve" smooth="yes"/>
      <point x="340" y="390"/>
      <point x="316" y="359"/>
      <point x="282" y="338" type="curve" smooth="yes"/>
      <point x="69" y="206" type="line"/>
    </contour>
    <contour>
      <point x="-12" y="0" type="line"/>
      <point x="66" y="0" type="line"/>
      <point x="279" y="700" type="line"/>
      <point x="204" y="700" type="line"/>
    </contour>
    <contour>
      <point x="284" y="-8" type="curve" smooth="yes"/>
      <point x="320" y="-8"/>
      <point x="369" y="29"/>
      <point x="402" y="82" type="curve"/>
      <point x="381" y="115" type="line"/>
      <point x="365" y="94"/>
      <point x="348" y="78"/>
      <point x="340" y="77" type="curve" smooth="yes"/>
      <point x="313" y="74"/>
      <point x="264" y="160"/>
      <point x="245" y="311" type="curve"/>
      <point x="175" y="262" type="line"/>
      <point x="193" y="104"/>
      <point x="248" y="-8"/>
    </contour>
    <contour>
      <point x="195" y="617" type="curve"/>
      <point x="204" y="700" type="line"/>
      <point x="90" y="700" type="line"/>
      <point x="82" y="655" type="line"/>
      <point x="137" y="658"/>
      <point x="184" y="642"/>
    </contour>
  </outline>
</glyph>
<glyph name="l" format="2">
  <advance width="283"/>
  <unicode hex="006C"/>
  <outline>
    <contour>
      <point x="76" y="-8" type="curve" smooth="yes"/>
      <point x="139" y="-8"/>
      <point x="213" y="82"/>
      <point x="255" y="210" type="curve"/>
      <point x="225" y="228" type="line"/>
      <point x="194" y="137"/>
      <point x="155" y="72"/>
      <point x="133" y="72" type="curve" smooth="yes"/>
      <point x="113" y="72"/>
      <point x="117" y="108"/>
      <point x="142" y="185" type="curve" smooth="yes"/>
      <point x="299" y="700" type="line"/>
      <point x="224" y="700" type="line"/>
      <point x="53" y="143" type="line" smooth="yes"/>
      <point x="24" y="55"/>
      <point x="34" y="-8"/>
    </contour>
    <contour>
      <point x="215" y="617" type="curve"/>
      <point x="224" y="700" type="line"/>
      <point x="110" y="700" type="line"/>
      <point x="102" y="655" type="line"/>
      <point x="157" y="658"/>
      <point x="204" y="642"/>
    </contour>
  </outline>
</glyph>
<glyph name="m" format="2">
  <advance width="763"/>
  <unicode hex="006D"/>
  <outline>
    <contour>
      <point x="546" y="-8" type="curve" smooth="yes"/>
      <point x="606" y="-8"/>
      <point x="686" y="86"/>
      <point x="739" y="218" type="curve"/>
      <point x="709" y="236" type="line"/>
      <point x="672" y="145"/>
      <point x="629" y="80"/>
      <point x="605" y="80" type="curve" smooth="yes"/>
      <point x="586" y="80"/>
      <point x="592" y="113"/>
      <point x="619" y="185" type="curve" smooth="yes"/>
      <point x="636" y="230"/>
      <point x="664" y="298"/>
      <point x="687" y="359" type="curve" smooth="yes"/>
      <point x="720" y="446"/>
      <point x="706" y="508"/>
      <point x="654" y="508" type="curve" smooth="yes"/>
      <point x="594" y="508"/>
      <point x="493" y="417"/>
      <point x="416" y="288" type="curve"/>
      <point x="416" y="226" type="line"/>
      <point x="478" y="338"/>
      <point x="562" y="417"/>
      <point x="611" y="417" type="curve" smooth="yes"/>
      <point x="626" y="417"/>
      <point x="618" y="382"/>
      <point x="592" y="308" type="curve" smooth="yes"/>
      <point x="528" y="143" type="line" smooth="yes"/>
      <point x="495" y="55"/>
      <point x="502" y="-8"/>
    </contour>
    <contour>
      <point x="39" y="0" type="curve"/>
      <point x="114" y="0" type="line"/>
      <point x="208" y="250"/>
      <point x="285" y="448"/>
      <point x="254" y="365" type="curve"/>
      <point x="285" y="449"/>
      <point x="276" y="508"/>
      <point x="233" y="508" type="curve" smooth="yes"/>
      <point x="172" y="508"/>
      <point x="94" y="418"/>
      <point x="45" y="290" type="curve"/>
      <point x="75" y="273" type="line"/>
      <point x="110" y="364"/>
      <point x="151" y="429"/>
      <point x="174" y="429" type="curve" smooth="yes"/>
      <point x="194" y="429"/>
      <point x="189" y="395"/>
      <point x="162" y="323" type="curve" smooth="yes"/>
      <point x="125" y="219"/>
      <point x="74" y="85"/>
    </contour>
    <contour>
      <point x="372" y="308" type="curve"/>
      <point x="250" y="0" type="line"/>
      <point x="325" y="0" type="line"/>
      <point x="342" y="45"/>
      <point x="444" y="298"/>
      <point x="467" y="359" type="curve" smooth="yes"/>
      <point x="500" y="446"/>
      <point x="486" y="508"/>
      <point x="434" y="508" type="curve" smooth="yes"/>
      <point x="377" y="508"/>
      <point x="277" y="417"/>
      <point x="200" y="288" type="curve"/>
      <point x="200" y="226" type="line"/>
      <point x="262" y="338"/>
      <point x="342" y="417"/>
      <point x="386" y="417" type="curve" smooth="yes"/>
      <point x="404" y="417"/>
      <point x="398" y="382"/>
    </contour>
  </outline>
</glyph>
<glyph name="n" format="2">
  <advance width="547"/>
  <unicode hex="006E"/>
  <outline>
    <contour>
      <point x="329" y="-8" type="curve" smooth="yes"/>
      <point x="389" y="-8"/>
      <point x="469" y="86"/>
      <point x="522" y="218" type="curve"/>
      <point x="492" y="236" type="line"/>
      <point x="455" y="145"/>
      <point x="412" y="80"/>
      <point x="388" y="80" type="curve" smooth="yes"/>
      <point x="369" y="80"/>
      <point x="375" y="113"/>
      <point x="402" y="185" type="curve" smooth="yes"/>
      <point x="419" y="230"/>
      <point x="446" y="298"/>
      <point x="469" y="359" type="curve" smooth="yes"/>
      <point x="502" y="446"/>
      <point x="489" y="508"/>
      <point x="437" y="508" type="curve" smooth="yes"/>
      <point x="379" y="508"/>
      <point x="282" y="417"/>
      <point x="205" y="288" type="curve"/>
      <point x="205" y="226" type="line"/>
      <point x="267" y="338"/>
      <point x="344" y="417"/>
      <point x="389" y="417" type="curve" smooth="yes"/>
      <point x="407" y="417"/>
      <point x="401" y="365"/>
      <point x="375" y="291" type="curve"/>
      <point x="311" y="143" type="line"/>
      <point x="278" y="55"/>
      <point x="285" y="-8"/>
    </contour>
    <contour>
      <point x="42" y="0" type="curve"/>
      <point x="117" y="0" type="line"/>
      <point x="211" y="250"/>
      <point x="288" y="448"/>
      <point x="257" y="365" type="curve"/>
      <point x="288" y="449"/>
      <point x="279" y="508"/>
      <point x="236" y="508" type="curve" smooth="yes"/>
      <point x="175" y="508"/>
      <point x="97" y="418"/>
      <point x="48" y="290" type="curve"/>
      <point x="78" y="273" type="line"/>
      <point x="113" y="364"/>
      <point x="154" y="429"/>
      <point x="177" y="429" type="curve" smooth="yes"/>
      <point x="197" y="429"/>
      <point x="192" y="378"/>
      <point x="165" y="306" type="curve" smooth="yes"/>
      <point x="128" y="202"/>
      <point x="77" y="85"/>
    </contour>
  </outline>
</glyph>
<glyph name="o" format="2">
  <advance width="448"/>
  <unicode hex="006F"/>
  <anchor x="290" y="435" name="top"/>
  <anchor x="158" y="0" name="bottom"/>
  <anchor x="224" y="218" name="center"/>
  <anchor x="494" y="435" name="topright"/>
  <anchor x="340" y="10" name="ogonek"/>
  <outline>
    <contour>
      <point x="162" y="-8" type="curve" smooth="yes"/>
      <point x="251" y="-8"/>
      <point x="349" y="86"/>
      <point x="400" y="220" type="curve" smooth="yes"/>
      <point x="464" y="389"/>
      <point x="424" y="508"/>
      <point x="304" y="508" type="curve" smooth="yes"/>
      <point x="216" y="508"/>
      <point x="116" y="410"/>
      <point x="64" y="272" type="curve" smooth="yes"/>
      <point x="3" y="108"/>
      <point x="44" y="-8"/>
    </contour>
    <contour>
      <point x="173" y="38" type="curve" smooth="yes"/>
      <point x="105" y="38"/>
      <point x="101" y="120"/>
      <point x="163" y="285" type="curve" smooth="yes"/>
      <point x="202" y="389"/>
      <point x="256" y="463"/>
      <point x="294" y="463" type="curve" smooth="yes"/>
      <point x="362" y="463"/>
      <point x="365" y="378"/>
      <point x="301" y="208" type="curve" smooth="yes"/>
      <point x="263" y="108"/>
      <point x="210" y="38"/>
    </contour>
  </outline>
</glyph>
<glyph name="p" format="2">
  <advance width="468"/>
  <unicode hex="0070"/>
  <outline>
    <contour>
      <point x="-105" y="-200" type="line"/>
      <point x="179" y="-200" type="line"/>
      <point x="188" y="-154" type="line"/>
      <point x="129" y="-154" type="line" smooth="yes"/>
      <point x="97" y="-154"/>
      <point x="80" y="-150"/>
      <point x="87" y="-120" type="curve" smooth="yes"/>
      <point x="257" y="568" type="line"/>
      <point x="186" y="562" type="line"/>
      <point x="7" y="-128" type="line" smooth="yes"/>
      <point x="4" y="-143"/>
      <point x="-10" y="-154"/>
      <point x="-26" y="-154" type="curve" smooth="yes"/>
      <point x="-97" y="-154" type="line"/>
    </contour>
    <contour>
      <point x="190" y="43" type="curve" smooth="yes"/>
      <point x="282" y="43"/>
      <point x="382" y="140"/>
      <point x="431" y="277" type="curve" smooth="yes"/>
      <point x="479" y="411"/>
      <point x="436" y="506"/>
      <point x="326" y="506" type="curve" smooth="yes"/>
      <point x="240" y="506"/>
      <point x="113" y="431"/>
      <point x="19" y="325" type="curve"/>
      <point x="36" y="285" type="line"/>
      <point x="123" y="378"/>
      <point x="225" y="444"/>
      <point x="283" y="444" type="curve" smooth="yes"/>
      <point x="365" y="444"/>
      <point x="391" y="371"/>
      <point x="345" y="243" type="curve" smooth="yes"/>
      <point x="310" y="145"/>
      <point x="241" y="93"/>
      <point x="179" y="93" type="curve" smooth="yes"/>
      <point x="161" y="93"/>
      <point x="134" y="107"/>
      <point x="115" y="126" type="curve"/>
      <point x="106" y="66" type="line"/>
      <point x="124" y="53"/>
      <point x="158" y="43"/>
    </contour>
  </outline>
</glyph>
<glyph name="q" format="2">
  <advance width="448"/>
  <unicode hex="0071"/>
  <outline>
    <contour>
      <point x="81" y="-200" type="line"/>
      <point x="373" y="-200" type="line"/>
      <point x="380" y="-154" type="line"/>
      <point x="366" y="-154"/>
      <point x="354" y="-154"/>
      <point x="337" y="-154" type="curve" smooth="yes"/>
      <point x="293" y="-154"/>
      <point x="270" y="-125"/>
      <point x="280" y="-101" type="curve"/>
      <point x="423" y="475" type="line"/>
      <point x="351" y="471" type="line"/>
      <point x="198" y="-124" type="line" smooth="yes"/>
      <point x="193" y="-142"/>
      <point x="168" y="-154"/>
      <point x="137" y="-154" type="curve" smooth="yes"/>
      <point x="87" y="-154" type="line"/>
    </contour>
    <contour>
      <point x="93" y="-8" type="curve" smooth="yes"/>
      <point x="133" y="-8"/>
      <point x="214" y="53"/>
      <point x="291" y="140" type="curve"/>
      <point x="273" y="176" type="line"/>
      <point x="217" y="116"/>
      <point x="158" y="74"/>
      <point x="131" y="74" type="curve" smooth="yes"/>
      <point x="103" y="74"/>
      <point x="105" y="128"/>
      <point x="136" y="229" type="curve" smooth="yes"/>
      <point x="181" y="370"/>
      <point x="256" y="453"/>
      <point x="317" y="453" type="curve" smooth="yes"/>
      <point x="328" y="453"/>
      <point x="349" y="439"/>
      <point x="368" y="420" type="curve"/>
      <point x="404" y="476" type="line"/>
      <point x="387" y="495"/>
      <point x="362" y="508"/>
      <point x="343" y="508" type="curve" smooth="yes"/>
      <point x="229" y="508"/>
      <point x="107" y="379"/>
      <point x="50" y="197" type="curve" smooth="yes"/>
      <point x="13" y="77"/>
      <point x="31" y="-8"/>
    </contour>
  </outline>
</glyph>
<glyph name="r" format="2">
  <advance width="404"/>
  <unicode hex="0072"/>
  <outline>
    <contour>
      <point x="58" y="0" type="curve"/>
      <point x="133" y="0" type="line"/>
      <point x="205" y="250"/>
      <point x="260" y="448"/>
      <point x="236" y="365" type="curve"/>
      <point x="260" y="449"/>
      <point x="252" y="508"/>
      <point x="208" y="508" type="curve" smooth="yes"/>
      <point x="149" y="508"/>
      <point x="79" y="418"/>
      <point x="39" y="290" type="curve"/>
      <point x="69" y="273" type="line"/>
      <point x="97" y="364"/>
      <point x="132" y="429"/>
      <point x="154" y="429" type="curve" smooth="yes"/>
      <point x="174" y="429"/>
      <point x="175" y="395"/>
      <point x="154" y="323" type="curve" smooth="yes"/>
      <point x="125" y="221"/>
      <point x="85" y="87"/>
    </contour>
    <contour>
      <point x="140" y="158" type="curve"/>
      <point x="146" y="103" type="line"/>
      <point x="222" y="285"/>
      <point x="303" y="413"/>
      <point x="342" y="413" type="curve" smooth="yes"/>
      <point x="356" y="413"/>
      <point x="366" y="403"/>
      <point x="380" y="403" type="curve" smooth="yes"/>
      <point x="407" y="403"/>
      <point x="434" y="425"/>
      <point x="445" y="456" type="curve" smooth="yes"/>
      <point x="456" y="486"/>
      <point x="425" y="508"/>
      <point x="369" y="508" type="curve" smooth="yes"/>
      <point x="325" y="508"/>
      <point x="230" y="363"/>
    </contour>
  </outline>
</glyph>
<glyph name="s" format="2">
  <advance width="404"/>
  <unicode hex="0073"/>
  <outline>
    <contour>
      <point x="230" y="95" type="curve" smooth="yes"/>
      <point x="214" y="51"/>
      <point x="183" y="38"/>
      <point x="155" y="38" type="curve" smooth="yes"/>
      <point x="115" y="38"/>
      <point x="101" y="63"/>
      <point x="122" y="124" type="curve" smooth="yes"/>
      <point x="127" y="137"/>
      <point x="124" y="147"/>
      <point x="115" y="147" type="curve" smooth="yes"/>
      <point x="81" y="147"/>
      <point x="50" y="128"/>
      <point x="41" y="100" type="curve" smooth="yes"/>
      <point x="19" y="37"/>
      <point x="57" y="-8"/>
      <point x="134" y="-8" type="curve" smooth="yes"/>
      <point x="212" y="-8"/>
      <point x="287" y="48"/>
      <point x="316" y="128" type="curve" smooth="yes"/>
      <point x="359" y="247"/>
      <point x="160" y="281"/>
      <point x="214" y="422" type="curve" smooth="yes"/>
      <point x="226" y="455"/>
      <point x="249" y="462"/>
      <point x="270" y="462" type="curve" smooth="yes"/>
      <point x="312" y="462"/>
      <point x="326" y="433"/>
      <point x="303" y="367" type="curve" smooth="yes"/>
      <point x="298" y="354"/>
      <point x="301" y="344"/>
      <point x="310" y="344" type="curve" smooth="yes"/>
      <point x="344" y="344"/>
      <point x="375" y="363"/>
      <point x="384" y="391" type="curve" smooth="yes"/>
      <point x="408" y="459"/>
      <point x="369" y="507"/>
      <point x="291" y="507" type="curve" smooth="yes"/>
      <point x="219" y="507"/>
      <point x="153" y="467"/>
      <point x="132" y="410" type="curve" smooth="yes"/>
      <point x="68" y="239"/>
      <point x="277" y="226"/>
    </contour>
  </outline>
</glyph>
<glyph name="t" format="2">
  <advance width="283"/>
  <unicode hex="0074"/>
  <outline>
    <contour>
      <point x="83" y="-8" type="curve" smooth="yes"/>
      <point x="147" y="-8"/>
      <point x="218" y="86"/>
      <point x="256" y="218" type="curve"/>
      <point x="226" y="236" type="line"/>
      <point x="199" y="145"/>
      <point x="162" y="80"/>
      <point x="137" y="80" type="curve" smooth="yes"/>
      <point x="119" y="80"/>
      <point x="120" y="116"/>
      <point x="141" y="193" type="curve" smooth="yes"/>
      <point x="169" y="297"/>
      <point x="218" y="469"/>
      <point x="259" y="609" type="curve"/>
      <point x="166" y="599" type="line"/>
      <point x="55" y="151" type="line" smooth="yes"/>
      <point x="29" y="58"/>
      <point x="41" y="-8"/>
    </contour>
    <contour>
      <point x="56" y="500" type="line"/>
      <point x="43" y="458" type="line"/>
      <point x="307" y="458" type="line"/>
      <point x="320" y="500" type="line"/>
    </contour>
  </outline>
</glyph>
<glyph name="u" format="2">
  <advance width="543"/>
  <unicode hex="0075"/>
  <anchor x="338" y="435" name="top"/>
  <anchor x="206" y="0" name="bottom"/>
  <anchor x="426" y="10" name="ogonek"/>
  <anchor x="589" y="435" name="topright"/>
  <outline>
    <contour>
      <point x="128" y="-8" type="curve" smooth="yes"/>
      <point x="186" y="-8"/>
      <point x="285" y="83"/>
      <point x="362" y="212" type="curve"/>
      <point x="362" y="275" type="line"/>
      <point x="300" y="163"/>
      <point x="219" y="84"/>
      <point x="171" y="84" type="curve" smooth="yes"/>
      <point x="156" y="84"/>
      <point x="164" y="118"/>
      <point x="190" y="192" type="curve"/>
      <point x="190" y="189"/>
      <point x="217" y="258"/>
      <point x="254" y="357" type="curve" smooth="yes"/>
      <point x="287" y="445"/>
      <point x="288" y="508"/>
      <point x="256" y="508" type="curve" smooth="yes"/>
      <point x="184" y="508"/>
      <point x="96" y="414"/>
      <point x="43" y="282" type="curve"/>
      <point x="73" y="265" type="line"/>
      <point x="110" y="356"/>
      <point x="162" y="421"/>
      <point x="197" y="421" type="curve" smooth="yes"/>
      <point x="204" y="421"/>
      <point x="190" y="387"/>
      <point x="163" y="315" type="curve" smooth="yes"/>
      <point x="146" y="270"/>
      <point x="119" y="202"/>
      <point x="96" y="141" type="curve" smooth="yes"/>
      <point x="63" y="54"/>
      <point x="76" y="-8"/>
    </contour>
    <contour>
      <point x="329" y="-8" type="curve" smooth="yes"/>
      <point x="390" y="-8"/>
      <point x="468" y="82"/>
      <point x="517" y="210" type="curve"/>
      <point x="487" y="228" type="line"/>
      <point x="452" y="137"/>
      <point x="411" y="72"/>
      <point x="388" y="72" type="curve" smooth="yes"/>
      <point x="368" y="72"/>
      <point x="373" y="105"/>
      <point x="400" y="177" type="curve" smooth="yes"/>
      <point x="430" y="261"/>
      <point x="480" y="395"/>
      <point x="523" y="500" type="curve"/>
      <point x="448" y="500" type="line"/>
      <point x="354" y="250"/>
      <point x="277" y="52"/>
      <point x="308" y="135" type="curve"/>
      <point x="277" y="51"/>
      <point x="286" y="-8"/>
    </contour>
  </outline>
</glyph>
<glyph name="v" format="2">
  <advance width="448"/>
  <unicode hex="0076"/>
  <outline>
    <contour>
      <point x="23" y="290" type="curve"/>
      <point x="53" y="273" type="line"/>
      <point x="86" y="364"/>
      <point x="127" y="429"/>
      <point x="152" y="429" type="curve" smooth="yes"/>
      <point x="190" y="429"/>
      <point x="198" y="409"/>
      <point x="182" y="357" type="curve" smooth="yes"/>
      <point x="172" y="324"/>
      <point x="97" y="216"/>
      <point x="83" y="176" type="curve" smooth="yes"/>
      <point x="45" y="68"/>
      <point x="79" y="-8"/>
      <point x="165" y="-8" type="curve" smooth="yes"/>
      <point x="246" y="-8"/>
      <point x="345" y="106"/>
      <point x="404" y="268" type="curve" smooth="yes"/>
      <point x="455" y="408"/>
      <point x="438" y="507"/>
      <point x="367" y="507" type="curve" smooth="yes"/>
      <point x="342" y="507"/>
      <point x="318" y="487"/>
      <point x="308" y="460" type="curve" smooth="yes"/>
      <point x="299" y="436"/>
      <point x="303" y="419"/>
      <point x="320" y="419" type="curve" smooth="yes"/>
      <point x="372" y="419"/>
      <point x="380" y="329"/>
      <point x="339" y="216" type="curve" smooth="yes"/>
      <point x="306" y="123"/>
      <point x="256" y="57"/>
      <point x="208" y="57" type="curve" smooth="yes"/>
      <point x="139" y="57"/>
      <point x="128" y="122"/>
      <point x="175" y="256" type="curve" smooth="yes"/>
      <point x="214" y="365"/>
      <point x="245" y="372"/>
      <point x="268" y="444" type="curve" smooth="yes"/>
      <point x="279" y="481"/>
      <point x="256" y="507"/>
      <point x="211" y="507" type="curve" smooth="yes"/>
      <point x="147" y="507"/>
      <point x="69" y="417"/>
    </contour>
  </outline>
</glyph>
<glyph name="w" format="2">
  <advance width="652"/>
  <unicode hex="0077"/>
  <outline>
    <contour>
      <point x="361" y="-8" type="curve" smooth="yes"/>
      <point x="448" y="-8"/>
      <point x="551" y="106"/>
      <point x="610" y="268" type="curve" smooth="yes"/>
      <point x="661" y="408"/>
      <point x="646" y="507"/>
      <point x="573" y="507" type="curve" smooth="yes"/>
      <point x="548" y="507"/>
      <point x="524" y="488"/>
      <point x="514" y="460" type="curve" smooth="yes"/>
      <point x="505" y="436"/>
      <point x="510" y="419"/>
      <point x="526" y="419" type="curve" smooth="yes"/>
      <point x="585" y="419"/>
      <point x="588" y="335"/>
      <point x="545" y="216" type="curve" smooth="yes"/>
      <point x="512" y="123"/>
      <point x="458" y="57"/>
      <point x="404" y="57" type="curve" smooth="yes"/>
      <point x="381" y="57"/>
      <point x="363" y="70"/>
      <point x="347" y="89" type="curve"/>
      <point x="386" y="127"/>
      <point x="448" y="247"/>
      <point x="476" y="319" type="curve" smooth="yes"/>
      <point x="509" y="410"/>
      <point x="498" y="454"/>
      <point x="431" y="454" type="curve" smooth="yes"/>
      <point x="380" y="454"/>
      <point x="298" y="356"/>
      <point x="258" y="218" type="curve" smooth="yes"/>
      <point x="243" y="168"/>
      <point x="246" y="104"/>
      <point x="253" y="64" type="curve"/>
      <point x="240" y="60"/>
      <point x="223" y="57"/>
      <point x="213" y="57" type="curve" smooth="yes"/>
      <point x="153" y="57"/>
      <point x="148" y="139"/>
      <point x="189" y="256" type="curve" smooth="yes"/>
      <point x="228" y="365"/>
      <point x="250" y="372"/>
      <point x="273" y="444" type="curve" smooth="yes"/>
      <point x="284" y="481"/>
      <point x="260" y="507"/>
      <point x="216" y="507" type="curve" smooth="yes"/>
      <point x="152" y="507"/>
      <point x="74" y="417"/>
      <point x="28" y="290" type="curve"/>
      <point x="58" y="273" type="line"/>
      <point x="91" y="364"/>
      <point x="132" y="429"/>
      <point x="157" y="429" type="curve" smooth="yes"/>
      <point x="195" y="429"/>
      <point x="211" y="409"/>
      <point x="195" y="357" type="curve" smooth="yes"/>
      <point x="185" y="324"/>
      <point x="102" y="216"/>
      <point x="88" y="176" type="curve" smooth="yes"/>
      <point x="50" y="68"/>
      <point x="84" y="-8"/>
      <point x="170" y="-8" type="curve" smooth="yes"/>
      <point x="200" y="-8"/>
      <point x="242" y="7"/>
      <point x="273" y="29" type="curve"/>
      <point x="292" y="7"/>
      <point x="328" y="-8"/>
    </contour>
    <contour>
      <point x="323" y="134" type="curve"/>
      <point x="311" y="179"/>
      <point x="318" y="259"/>
      <point x="341" y="328" type="curve" smooth="yes"/>
      <point x="355" y="368"/>
      <point x="379" y="397"/>
      <point x="398" y="397" type="curve" smooth="yes"/>
      <point x="421" y="397"/>
      <point x="437" y="346"/>
      <point x="412" y="273" type="curve" smooth="yes"/>
      <point x="403" y="241"/>
      <point x="356" y="183"/>
    </contour>
  </outline>
</glyph>
<glyph name="x" format="2">
  <advance width="537"/>
  <unicode hex="0078"/>
  <outline>
    <contour>
      <point x="41" y="-3" type="curve" smooth="yes"/>
      <point x="123" y="-3"/>
      <point x="429" y="419"/>
      <point x="472" y="419" type="curve" smooth="yes"/>
      <point x="503" y="419"/>
      <point x="517" y="404"/>
      <point x="520" y="383" type="curve"/>
      <point x="572" y="452" type="line"/>
      <point x="557" y="485"/>
      <point x="528" y="508"/>
      <point x="512" y="508" type="curve" smooth="yes"/>
      <point x="452" y="508"/>
      <point x="118" y="91"/>
      <point x="91" y="91" type="curve" smooth="yes"/>
      <point x="74" y="91"/>
      <point x="65" y="108"/>
      <point x="57" y="132" type="curve"/>
      <point x="-7" y="77" type="line"/>
      <point x="4" y="30"/>
      <point x="29" y="-3"/>
    </contour>
    <contour>
      <point x="310" y="-3" type="curve" smooth="yes"/>
      <point x="345" y="-3"/>
      <point x="398" y="30"/>
      <point x="437" y="77" type="curve"/>
      <point x="415" y="110" type="line"/>
      <point x="393" y="86"/>
      <point x="365" y="69"/>
      <point x="348" y="69" type="curve" smooth="yes"/>
      <point x="321" y="69"/>
      <point x="314" y="508"/>
      <point x="254" y="508" type="curve" smooth="yes"/>
      <point x="217" y="508"/>
      <point x="152" y="472"/>
      <point x="99" y="422" type="curve"/>
      <point x="101" y="376" type="line"/>
      <point x="125" y="409"/>
      <point x="164" y="432"/>
      <point x="196" y="432" type="curve" smooth="yes"/>
      <point x="239" y="432"/>
      <point x="228" y="-3"/>
    </contour>
  </outline>
</glyph>
<glyph name="y" format="2">
  <advance width="444"/>
  <unicode hex="0079"/>
  <outline>
    <contour>
      <point x="-43" y="-209" type="curve" smooth="yes"/>
      <point x="55" y="-209"/>
      <point x="113" y="-89"/>
      <point x="228" y="80" type="curve" smooth="yes"/>
      <point x="305" y="193"/>
      <point x="397" y="320"/>
      <point x="440" y="461" type="curve" smooth="yes"/>
      <point x="448" y="487"/>
      <point x="425" y="508"/>
      <point x="388" y="508" type="curve" smooth="yes"/>
      <point x="355" y="508"/>
      <point x="329" y="484"/>
      <point x="329" y="453" type="curve" smooth="yes"/>
      <point x="329" y="448"/>
      <point x="334" y="435"/>
      <point x="337" y="429" type="curve" smooth="yes"/>
      <point x="365" y="369"/>
      <point x="279" y="233"/>
      <point x="180" y="90" type="curve" smooth="yes"/>
      <point x="119" y="3"/>
      <point x="65" y="-169"/>
      <point x="-28" y="-169" type="curve" smooth="yes"/>
      <point x="-59" y="-169"/>
      <point x="-56" y="-140"/>
      <point x="-43" y="-97" type="curve" smooth="yes"/>
      <point x="-37" y="-78"/>
      <point x="-39" y="-65"/>
      <point x="-51" y="-65" type="curve" smooth="yes"/>
      <point x="-83" y="-65"/>
      <point x="-112" y="-81"/>
      <point x="-120" y="-106" type="curve" smooth="yes"/>
      <point x="-141" y="-166"/>
      <point x="-111" y="-209"/>
    </contour>
    <contour>
      <point x="41" y="315" type="curve"/>
      <point x="78" y="315" type="line"/>
      <point x="97" y="375"/>
      <point x="133" y="434"/>
      <point x="160" y="434" type="curve" smooth="yes"/>
      <point x="195" y="434"/>
      <point x="187" y="236"/>
      <point x="151" y="37" type="curve"/>
      <point x="214" y="95" type="line"/>
      <point x="264" y="330"/>
      <point x="275" y="508"/>
      <point x="185" y="508" type="curve" smooth="yes"/>
      <point x="136" y="508"/>
      <point x="76" y="429"/>
    </contour>
  </outline>
</glyph>
<glyph name="z" format="2">
  <advance width="437"/>
  <unicode hex="007A"/>
  <outline>
    <contour>
      <point x="31" y="-24" type="line"/>
      <point x="443" y="493" type="line"/>
      <point x="408" y="520" type="line"/>
      <point x="-5" y="2" type="line"/>
    </contour>
    <contour>
      <point x="-5" y="2" type="curve"/>
      <point x="26" y="-20" type="line"/>
      <point x="43" y="3"/>
      <point x="76" y="19"/>
      <point x="107" y="19" type="curve" smooth="yes"/>
      <point x="125" y="19"/>
      <point x="178" y="-14"/>
      <point x="219" y="-14" type="curve" smooth="yes"/>
      <point x="269" y="-14"/>
      <point x="324" y="24"/>
      <point x="351" y="77" type="curve" smooth="yes"/>
      <point x="393" y="163" type="line"/>
      <point x="347" y="172" type="line"/>
      <point x="316" y="117" type="line" smooth="yes"/>
      <point x="300" y="88"/>
      <point x="280" y="68"/>
      <point x="249" y="68" type="curve" smooth="yes"/>
      <point x="223" y="68"/>
      <point x="170" y="101"/>
      <point x="136" y="101" type="curve" smooth="yes"/>
      <point x="86" y="101"/>
      <point x="27" y="68"/>
    </contour>
    <contour>
      <point x="107" y="323" type="line"/>
      <point x="136" y="378" type="line" smooth="yes"/>
      <point x="151" y="407"/>
      <point x="175" y="427"/>
      <point x="204" y="427" type="curve" smooth="yes"/>
      <point x="228" y="427"/>
      <point x="278" y="394"/>
      <point x="310" y="394" type="curve" smooth="yes"/>
      <point x="358" y="394"/>
      <point x="420" y="435"/>
      <point x="443" y="493" type="curve"/>
      <point x="414" y="515" type="line"/>
      <point x="398" y="492"/>
      <point x="367" y="476"/>
      <point x="338" y="476" type="curve" smooth="yes"/>
      <point x="321" y="476"/>
      <point x="271" y="509"/>
      <point x="232" y="509" type="curve" smooth="yes"/>
      <point x="185" y="509"/>
      <point x="133" y="471"/>
      <point x="108" y="418" type="curve" smooth="yes"/>
      <point x="68" y="332" type="line"/>
    </contour>
  </outline>
</glyph>
<glyph name="AE" format="2">
  <advance width="828"/>
  <unicode hex="00C6"/>
  <outline>
    <contour>
      <point x="537" y="-2" type="curve" smooth="yes"/>
      <point x="674" y="0" type="line"/>
      <point x="783" y="131" type="line"/>
      <point x="769" y="149" type="line"/>
      <point x="701" y="82"/>
      <point x="643" y="52"/>
      <point x="618" y="52" type="curve" smooth="yes"/>
      <point x="582" y="52"/>
      <point x="524" y="52"/>
      <point x="506" y="52" type="curve" smooth="yes"/>
      <point x="475" y="52"/>
      <point x="457" y="74"/>
      <point x="464" y="104" type="curve" smooth="yes"/>
      <point x="471" y="134"/>
      <point x="588" y="623"/>
      <point x="591" y="635" type="curve" smooth="yes"/>
      <point x="595" y="653"/>
      <point x="618" y="665"/>
      <point x="646" y="665" type="curve" smooth="yes"/>
      <point x="663" y="665"/>
      <point x="700" y="665"/>
      <point x="715" y="665" type="curve" smooth="yes"/>
      <point x="750" y="665"/>
      <point x="787" y="613"/>
      <point x="806" y="539" type="curve"/>
      <point x="829" y="552" type="line"/>
      <point x="806" y="700" type="line"/>
      <point x="722" y="700"/>
      <point x="648" y="698"/>
      <point x="563" y="698" type="curve" smooth="yes"/>
      <point x="523" y="698"/>
      <point x="388" y="700"/>
      <point x="343" y="700" type="curve"/>
      <point x="336" y="672" type="line"/>
      <point x="380" y="672"/>
      <point x="442" y="672"/>
      <point x="466" y="672" type="curve" smooth="yes"/>
      <point x="494" y="672"/>
      <point x="512" y="661"/>
      <point x="505" y="633" type="curve" smooth="yes"/>
      <point x="488" y="559"/>
      <point x="393" y="165"/>
      <point x="383" y="124" type="curve" smooth="yes"/>
      <point x="373" y="78"/>
      <point x="348" y="46"/>
      <point x="322" y="46" type="curve" smooth="yes"/>
      <point x="295" y="46" type="line"/>
      <point x="288" y="0" type="line"/>
      <point x="323" y="0"/>
      <point x="368" y="2"/>
      <point x="399" y="2" type="curve" smooth="yes"/>
      <point x="429" y="2"/>
      <point x="503" y="-2"/>
    </contour>
    <contour>
      <point x="-34" y="0" type="line"/>
      <point x="209" y="0" type="line"/>
      <point x="216" y="46" type="line"/>
      <point x="201" y="46" type="line" smooth="yes"/>
      <point x="168" y="46"/>
      <point x="151" y="76"/>
      <point x="173" y="116" type="curve" smooth="yes"/>
      <point x="510" y="686" type="line"/>
      <point x="482" y="689" type="line"/>
      <point x="281" y="371"/>
      <point x="178" y="230"/>
      <point x="143" y="174" type="curve" smooth="yes"/>
      <point x="98" y="101"/>
      <point x="37" y="46"/>
      <point x="-4" y="46" type="curve" smooth="yes"/>
      <point x="-27" y="46" type="line"/>
    </contour>
    <contour>
      <point x="654" y="200" type="curve"/>
      <point x="677" y="200" type="line"/>
      <point x="690" y="271"/>
      <point x="713" y="371"/>
      <point x="733" y="442" type="curve"/>
      <point x="709" y="442" type="line"/>
      <point x="695" y="379"/>
      <point x="662" y="334"/>
      <point x="631" y="334" type="curve" smooth="yes"/>
      <point x="275" y="334" type="line"/>
      <point x="267" y="294" type="line"/>
      <point x="320" y="294"/>
      <point x="603" y="294"/>
      <point x="624" y="294" type="curve" smooth="yes"/>
      <point x="655" y="294"/>
      <point x="668" y="261"/>
    </contour>
  </outline>
</glyph>
<glyph name="OE" format="2">
  <advance width="1008"/>
  <unicode hex="0152"/>
  <outline>
    <contour>
      <point x="289" y="-11" type="curve" smooth="yes"/>
      <point x="464" y="-11"/>
      <point x="621" y="136"/>
      <point x="670" y="345" type="curve" smooth="yes"/>
      <point x="720" y="564"/>
      <point x="633" y="719"/>
      <point x="460" y="719" type="curve" smooth="yes"/>
      <point x="290" y="719"/>
      <point x="134" y="564"/>
      <point x="83" y="345" type="curve" smooth="yes"/>
      <point x="35" y="136"/>
      <point x="120" y="-11"/>
    </contour>
    <contour>
      <point x="310" y="37" type="curve" smooth="yes"/>
      <point x="197" y="37"/>
      <point x="153" y="171"/>
      <point x="202" y="385" type="curve" smooth="yes"/>
      <point x="243" y="563"/>
      <point x="344" y="672"/>
      <point x="447" y="672" type="curve" smooth="yes"/>
      <point x="559" y="672"/>
      <point x="603" y="530"/>
      <point x="551" y="306" type="curve" smooth="yes"/>
      <point x="512" y="138"/>
      <point x="412" y="37"/>
    </contour>
    <contour>
      <point x="813" y="200" type="curve"/>
      <point x="854" y="200" type="line"/>
      <point x="868" y="277"/>
      <point x="893" y="385"/>
      <point x="914" y="462" type="curve"/>
      <point x="873" y="462" type="line"/>
      <point x="858" y="399"/>
      <point x="825" y="354"/>
      <point x="794" y="354" type="curve" smooth="yes"/>
      <point x="616" y="354" type="line"/>
      <point x="612" y="304" type="line"/>
      <point x="666" y="304"/>
      <point x="770" y="304"/>
      <point x="791" y="304" type="curve" smooth="yes"/>
      <point x="818" y="304"/>
      <point x="827" y="261"/>
    </contour>
    <contour>
      <point x="441" y="54" type="curve"/>
      <point x="369" y="-1" type="line"/>
      <point x="865" y="-1" type="line"/>
      <point x="970" y="163" type="line"/>
      <point x="935" y="178" type="line"/>
      <point x="881" y="105"/>
      <point x="815" y="54"/>
      <point x="775" y="54" type="curve" smooth="yes"/>
      <point x="765" y="54"/>
      <point x="483" y="54"/>
    </contour>
    <contour>
      <point x="531" y="700" type="curve"/>
      <point x="544" y="645" type="line"/>
      <point x="576" y="645"/>
      <point x="877" y="645"/>
      <point x="884" y="645" type="curve" smooth="yes"/>
      <point x="936" y="645"/>
      <point x="963" y="598"/>
      <point x="947" y="531" type="curve"/>
      <point x="988" y="531" type="line"/>
      <point x="1027" y="700" type="line"/>
      <point x="970" y="700"/>
      <point x="575" y="700"/>
    </contour>
  </outline>
</glyph>
<glyph name="uni0308" format="2">
  <advance width="0"/>
  <unicode hex="0308"/>
  <anchor x="291" y="703" name="top"/>
  <anchor x="214" y="435" name="_top"/>
  <outline>
    <contour>
      <point x="196" y="591" type="curve" smooth="yes"/>
      <point x="221" y="591"/>
      <point x="241" y="616"/>
      <point x="241" y="647" type="curve" smooth="yes"/>
      <point x="241" y="678"/>
      <point x="221" y="703"/>
      <point x="196" y="703" type="curve" smooth="yes"/>
      <point x="170" y="703"/>
      <point x="150" y="678"/>
      <point x="150" y="647" type="curve" smooth="yes"/>
      <point x="150" y="616"/>
      <point x="170" y="591"/>
    </contour>
    <contour>
      <point x="352" y="591" type="curve" smooth="yes"/>
      <point x="378" y="591"/>
      <point x="398" y="616"/>
      <point x="398" y="647" type="curve" smooth="yes"/>
      <point x="398" y="678"/>
      <point x="378" y="703"/>
      <point x="352" y="703" type="curve" smooth="yes"/>
      <point x="327" y="703"/>
      <point x="307" y="678"/>
      <point x="307" y="647" type="curve" smooth="yes"/>
      <point x="307" y="616"/>
      <point x="327" y="591"/>
    </contour>
  </outline>
</glyph>
<glyph name="N.alt" format="2">
  <advance width="806"/>
  <outline>
    <contour>
      <point x="304" y="609" type="curve" smooth="yes"/>
      <point x="556" y="-1" type="line"/>
      <point x="623" y="-1" type="line"/>
      <point x="765" y="614" type="line" smooth="yes"/>
      <point x="778" y="672"/>
      <point x="833" y="672"/>
      <point x="854" y="672" type="curve" smooth="yes"/>
      <point x="875" y="672"/>
      <point x="899" y="672"/>
      <point x="922" y="672" type="curve"/>
      <point x="929" y="700" type="line"/>
      <point x="567" y="700" type="line"/>
      <point x="560" y="672" type="line"/>
      <point x="658" y="672" type="line" smooth="yes"/>
      <point x="676" y="672"/>
      <point x="712" y="647"/>
      <point x="705" y="616" type="curve" smooth="yes"/>
      <point x="698" y="585"/>
      <point x="630" y="289"/>
      <point x="591" y="119" type="curve"/>
      <point x="610" y="101" type="line"/>
      <point x="353" y="702" type="line"/>
      <point x="148" y="702" type="line"/>
      <point x="142" y="674" type="line"/>
      <point x="246" y="674" type="line" smooth="yes"/>
      <point x="273" y="674"/>
      <point x="294" y="632"/>
    </contour>
    <contour>
      <point x="-44" y="4" type="line"/>
      <point x="358" y="4" type="line"/>
      <point x="364" y="28" type="line"/>
      <point x="327" y="28"/>
      <point x="285" y="28"/>
      <point x="252" y="28" type="curve" smooth="yes"/>
      <point x="219" y="28"/>
      <point x="208" y="66"/>
      <point x="218" y="108" type="curve" smooth="yes"/>
      <point x="338" y="627" type="line"/>
      <point x="300" y="702" type="line"/>
      <point x="295" y="702" type="line"/>
      <point x="281" y="640"/>
      <point x="157" y="105"/>
      <point x="155" y="94" type="curve" smooth="yes"/>
      <point x="151" y="77"/>
      <point x="128" y="32"/>
      <point x="99" y="32" type="curve" smooth="yes"/>
      <point x="-38" y="32" type="line"/>
    </contour>
  </outline>
</glyph>
<glyph name="c_t" format="2">
  <advance width="692"/>
  <anchor x="233" y="435" name="top_1"/>
  <anchor x="568" y="435" name="top_2"/>
  <anchor x="101" y="0" name="bottom_1"/>
  <anchor x="436" y="0" name="bottom_2"/>
  <anchor x="334.5" y="0" name="caret_1"/>
  <outline>
    <contour>
      <point x="333" y="344" type="curve"/>
      <point x="343" y="354" type="line"/>
      <point x="318" y="355"/>
      <point x="164" y="580"/>
      <point x="319" y="580" type="curve" smooth="yes"/>
      <point x="385" y="580"/>
      <point x="393" y="526"/>
      <point x="459" y="526" type="curve" smooth="yes"/>
      <point x="493" y="526"/>
      <point x="577" y="577"/>
      <point x="595" y="581" type="curve"/>
      <point x="579" y="599" type="line"/>
      <point x="561" y="595"/>
      <point x="513" y="566"/>
      <point x="499" y="566" type="curve" smooth="yes"/>
      <point x="433" y="566"/>
      <point x="425" y="620"/>
      <point x="359" y="620" type="curve" smooth="yes"/>
      <point x="101" y="620"/>
      <point x="287" y="344"/>
    </contour>
    <component base="c"/>
    <component base="t" xOffset="409"/>
  </outline>
</glyph>
<glyph name="f_f" format="2">
  <advance width="586"/>
  <outline>
    <contour>
      <point x="-8" y="-208" type="curve" smooth="yes"/>
      <point x="57" y="-208"/>
      <point x="139" y="-63"/>
      <point x="176" y="142" type="curve" smooth="yes"/>
      <point x="241" y="507" type="line" smooth="yes"/>
      <point x="259" y="608"/>
      <point x="278" y="663"/>
      <point x="315" y="663" type="curve" smooth="yes"/>
      <point x="347" y="663"/>
      <point x="358" y="639"/>
      <point x="343" y="581" type="curve" smooth="yes"/>
      <point x="339" y="568"/>
      <point x="343" y="558"/>
      <point x="353" y="558" type="curve" smooth="yes"/>
      <point x="386" y="558"/>
      <point x="415" y="578"/>
      <point x="422" y="606" type="curve" smooth="yes"/>
      <point x="436" y="663"/>
      <point x="398" y="703"/>
      <point x="330" y="703" type="curve" smooth="yes"/>
      <point x="241" y="703"/>
      <point x="182" y="616"/>
      <point x="160" y="493" type="curve" smooth="yes"/>
      <point x="95" y="128" type="line" smooth="yes"/>
      <point x="61" y="-58"/>
      <point x="18" y="-167"/>
      <point x="7" y="-167" type="curve" smooth="yes"/>
      <point x="-25" y="-167"/>
      <point x="-36" y="-144"/>
      <point x="-21" y="-86" type="curve" smooth="yes"/>
      <point x="-17" y="-73"/>
      <point x="-21" y="-63"/>
      <point x="-31" y="-63" type="curve" smooth="yes"/>
      <point x="-64" y="-63"/>
      <point x="-93" y="-83"/>
      <point x="-100" y="-111" type="curve" smooth="yes"/>
      <point x="-114" y="-168"/>
      <point x="-76" y="-208"/>
    </contour>
    <contour>
      <point x="71" y="408" type="line"/>
      <point x="345" y="408" type="line"/>
      <point x="358" y="450" type="line"/>
      <point x="84" y="450" type="line"/>
    </contour>
    <component base="f" xOffset="263"/>
  </outline>
</glyph>
<glyph name="f_i" format="2">
  <advance width="529"/>
  <outline>
    <contour>
      <point x="-8" y="-208" type="curve" smooth="yes"/>
      <point x="57" y="-208"/>
      <point x="137" y="-63"/>
      <point x="176" y="142" type="curve" smooth="yes"/>
      <point x="241" y="490" type="line" smooth="yes"/>
      <point x="259" y="591"/>
      <point x="338" y="663"/>
      <point x="375" y="663" type="curve" smooth="yes"/>
      <point x="447" y="663"/>
      <point x="438" y="639"/>
      <point x="423" y="581" type="curve" smooth="yes"/>
      <point x="419" y="568"/>
      <point x="423" y="558"/>
      <point x="433" y="558" type="curve" smooth="yes"/>
      <point x="466" y="558"/>
      <point x="515" y="578"/>
      <point x="522" y="606" type="curve" smooth="yes"/>
      <point x="536" y="663"/>
      <point x="498" y="703"/>
      <point x="390" y="703" type="curve" smooth="yes"/>
      <point x="301" y="703"/>
      <point x="183" y="616"/>
      <point x="160" y="493" type="curve" smooth="yes"/>
      <point x="95" y="146" type="line" smooth="yes"/>
      <point x="61" y="-40"/>
      <point x="18" y="-167"/>
      <point x="7" y="-167" type="curve" smooth="yes"/>
      <point x="-25" y="-167"/>
      <point x="-36" y="-144"/>
      <point x="-21" y="-86" type="curve" smooth="yes"/>
      <point x="-17" y="-73"/>
      <point x="-21" y="-63"/>
      <point x="-31" y="-63" type="curve" smooth="yes"/>
      <point x="-64" y="-63"/>
      <point x="-93" y="-83"/>
      <point x="-100" y="-111" type="curve" smooth="yes"/>
      <point x="-114" y="-168"/>
      <point x="-76" y="-208"/>
    </contour>
    <contour>
      <point x="71" y="408" type="line"/>
      <point x="345" y="408" type="line"/>
      <point x="358" y="450" type="line"/>
      <point x="84" y="450" type="line"/>
    </contour>
    <contour>
      <point x="336" y="-8" type="curve" smooth="yes"/>
      <point x="396" y="-8"/>
      <point x="476" y="86"/>
      <point x="529" y="218" type="curve"/>
      <point x="499" y="236" type="line"/>
      <point x="462" y="145"/>
      <point x="419" y="80"/>
      <point x="395" y="80" type="curve" smooth="yes"/>
      <point x="376" y="80"/>
      <point x="382" y="113"/>
      <point x="409" y="185" type="curve" smooth="yes"/>
      <point x="477" y="369" type="line" smooth="yes"/>
      <point x="495" y="419"/>
      <point x="486" y="451"/>
      <point x="450" y="451" type="curve" smooth="yes"/>
      <point x="358" y="450" type="line"/>
      <point x="344" y="408" type="line"/>
      <point x="361" y="408"/>
      <point x="374" y="409"/>
      <point x="396" y="409" type="curve" smooth="yes"/>
      <point x="407" y="409"/>
      <point x="395" y="359"/>
      <point x="369" y="286" type="curve" smooth="yes"/>
      <point x="318" y="143" type="line" smooth="yes"/>
      <point x="287" y="56"/>
      <point x="292" y="-8"/>
    </contour>
  </outline>
</glyph>
<glyph name="s.hist" format="2">
  <advance width="263"/>
  <outline>
    <contour>
      <point x="-71" y="-208" type="curve" smooth="yes"/>
      <point x="17" y="-208"/>
      <point x="94" y="-60"/>
      <point x="142" y="149" type="curve" smooth="yes"/>
      <point x="225" y="507" type="line" smooth="yes"/>
      <point x="249" y="608"/>
      <point x="292" y="663"/>
      <point x="328" y="663" type="curve" smooth="yes"/>
      <point x="359" y="663"/>
      <point x="369" y="639"/>
      <point x="352" y="581" type="curve" smooth="yes"/>
      <point x="347" y="568"/>
      <point x="351" y="558"/>
      <point x="361" y="558" type="curve" smooth="yes"/>
      <point x="395" y="558"/>
      <point x="424" y="578"/>
      <point x="432" y="606" type="curve" smooth="yes"/>
      <point x="449" y="663"/>
      <point x="413" y="703"/>
      <point x="345" y="703" type="curve" smooth="yes"/>
      <point x="256" y="703"/>
      <point x="173" y="616"/>
      <point x="144" y="493" type="curve" smooth="yes"/>
      <point x="61" y="132" type="line" smooth="yes"/>
      <point x="18" y="-54"/>
      <point x="-18" y="-167"/>
      <point x="-54" y="-167" type="curve" smooth="yes"/>
      <point x="-85" y="-167"/>
      <point x="-95" y="-144"/>
      <point x="-78" y="-86" type="curve" smooth="yes"/>
      <point x="-73" y="-73"/>
      <point x="-77" y="-63"/>
      <point x="-87" y="-63" type="curve" smooth="yes"/>
      <point x="-121" y="-63"/>
      <point x="-150" y="-83"/>
      <point x="-158" y="-111" type="curve" smooth="yes"/>
      <point x="-175" y="-168"/>
      <point x="-139" y="-208"/>
    </contour>
  </outline>
</glyph>
<glyph name="s_t" format="2">
  <advance width="687"/>
  <outline>
    <contour>
      <point x="313" y="344" type="curve"/>
      <point x="323" y="354" type="line"/>
      <point x="298" y="355"/>
      <point x="124" y="580"/>
      <point x="319" y="580" type="curve" smooth="yes"/>
      <point x="385" y="580"/>
      <point x="393" y="526"/>
      <point x="459" y="526" type="curve" smooth="yes"/>
      <point x="493" y="526"/>
      <point x="567" y="577"/>
      <point x="585" y="581" type="curve"/>
      <point x="569" y="599" type="line"/>
      <point x="551" y="595"/>
      <point x="513" y="566"/>
      <point x="499" y="566" type="curve" smooth="yes"/>
      <point x="433" y="566"/>
      <point x="425" y="620"/>
      <point x="359" y="620" type="curve" smooth="yes"/>
      <point x="61" y="620"/>
      <point x="267" y="344"/>
    </contour>
    <component base="s"/>
    <component base="t" xOffset="404"/>
  </outline>
</glyph>
